<?xml version="1.0" standalone="no"?>
<!DOCTYPE svg PUBLIC "-//W3C//DTD SVG 20010904//EN"
 "http://www.w3.org/TR/2001/REC-SVG-20010904/DTD/svg10.dtd">
<svg version="1.0" xmlns="http://www.w3.org/2000/svg"
 width="2048.000000pt" height="2048.000000pt" viewBox="0 0 2048.000000 2048.000000"
 preserveAspectRatio="xMidYMid meet">
<metadata>
Created by potrace 1.16, written by Peter Selinger 2001-2019
</metadata>
<g transform="translate(0.000000,2048.000000) scale(0.100000,-0.100000)"
fill="#000000" stroke="none">
<path d="M14094 14729 c-21 0 -48 -4 -59 -9 -11 -4 -45 -34 -76 -67 -31 -32
-82 -93 -113 -135 -31 -43 -91 -135 -134 -205 -43 -70 -113 -190 -156 -265
l-76 -136 -123 -76 c-67 -41 -161 -106 -208 -143 -48 -37 -198 -157 -335 -265
-137 -108 -277 -220 -311 -250 -34 -29 -85 -81 -114 -116 l-53 -62 -55 -16
c-31 -9 -103 -30 -161 -46 l-105 -31 -80 11 c-44 6 -156 23 -249 36 -93 14
-246 32 -340 41 -94 8 -263 19 -376 25 -113 6 -380 13 -595 16 l-390 7 -295
-12 c-162 -6 -356 -16 -430 -21 -74 -6 -184 -18 -245 -26 -60 -9 -163 -31
-228 -50 -64 -18 -168 -55 -230 -80 -61 -26 -138 -58 -169 -71 l-57 -24 -283
23 -283 22 -285 0 -285 0 -115 -13 c-63 -6 -159 -18 -213 -26 -54 -8 -150 -26
-215 -41 -64 -14 -169 -43 -232 -64 -63 -21 -178 -66 -255 -101 l-140 -64 -52
-52 -51 -52 -214 -104 c-117 -57 -222 -114 -232 -126 l-20 -22 12 -33 c7 -18
12 -37 12 -43 0 -5 -10 -14 -22 -20 -13 -6 -70 -45 -128 -88 -58 -43 -143
-115 -189 -159 -45 -45 -111 -121 -146 -171 -34 -49 -110 -171 -169 -270 -58
-98 -114 -203 -123 -232 l-16 -52 11 -26 12 -25 45 -12 c25 -7 45 -15 45 -19
0 -4 -42 -10 -93 -13 -50 -4 -177 -11 -282 -16 -104 -6 -320 -19 -480 -30
-159 -11 -409 -32 -555 -46 -146 -14 -312 -34 -369 -45 -57 -11 -145 -35 -196
-53 -51 -18 -117 -50 -147 -70 -31 -20 -78 -60 -106 -89 -27 -30 -63 -80 -80
-113 -16 -32 -39 -88 -50 -124 -12 -36 -29 -98 -38 -139 l-16 -73 -100 -107
c-55 -58 -128 -149 -163 -201 -35 -52 -77 -127 -94 -165 -16 -39 -36 -97 -44
-130 -9 -33 -18 -89 -22 -125 l-7 -65 16 -73 c8 -40 27 -95 43 -123 l27 -51
72 -67 c39 -36 116 -93 170 -127 55 -33 160 -94 234 -133 74 -40 216 -111 315
-158 99 -47 230 -107 290 -133 61 -26 162 -70 225 -97 63 -27 161 -69 218 -92
l102 -43 0 -17 c0 -9 -21 -53 -46 -98 l-47 -82 -69 -75 c-38 -41 -99 -95 -136
-119 -37 -25 -119 -70 -182 -101 -63 -30 -132 -69 -153 -86 -20 -17 -49 -53
-65 -78 l-27 -47 0 -65 0 -65 27 -45 c14 -25 39 -55 55 -66 16 -12 47 -31 69
-42 22 -11 67 -27 100 -36 32 -8 104 -19 159 -25 l100 -10 130 9 c72 5 166 16
210 24 44 8 109 22 145 31 35 9 116 34 179 56 64 22 166 63 226 93 61 29 153
79 205 110 52 32 131 85 175 118 44 34 103 83 132 111 l52 50 53 -16 c29 -9
163 -50 298 -92 135 -41 389 -118 565 -170 176 -51 448 -128 605 -170 157 -42
447 -117 646 -166 199 -48 525 -124 725 -168 200 -44 537 -114 749 -156 212
-41 516 -98 675 -125 160 -27 403 -67 540 -89 138 -22 385 -58 550 -80 165
-22 356 -47 425 -56 69 -8 202 -24 295 -35 94 -11 289 -31 435 -44 146 -14
411 -37 590 -51 179 -13 433 -32 565 -40 132 -8 373 -22 535 -30 162 -8 513
-20 779 -26 l483 -12 452 12 c248 6 541 18 651 26 110 8 279 22 375 30 96 8
222 20 280 26 58 6 177 19 265 30 88 11 237 31 330 45 94 13 267 43 385 65
118 22 294 58 391 80 97 21 243 57 325 79 82 23 237 70 344 106 107 36 266 95
355 130 88 36 214 94 280 128 66 35 153 83 194 107 40 24 103 72 140 105 l66
61 -16 34 c-9 19 -46 70 -82 115 -36 44 -134 147 -218 227 -85 81 -221 199
-304 262 -82 64 -235 173 -340 244 -104 71 -255 169 -335 218 -80 49 -206 123
-280 165 -74 42 -216 118 -315 170 -99 51 -241 123 -315 160 -74 37 -209 101
-300 143 -91 42 -259 116 -375 165 -115 48 -284 118 -375 155 -91 37 -255 101
-365 142 -110 41 -326 117 -480 169 -154 51 -359 118 -455 148 -96 30 -220 68
-275 85 -55 16 -255 73 -445 124 -190 52 -384 105 -432 117 l-88 23 0 12 c0 6
12 22 26 36 14 13 40 48 56 77 l31 53 16 -7 c9 -4 27 -9 41 -11 l25 -4 26 28
c15 15 54 82 87 148 34 66 66 140 72 165 l11 45 30 17 c16 9 41 38 56 64 16
26 46 70 68 99 22 29 66 83 99 121 32 38 72 98 90 134 l31 64 39 9 38 9 29 46
c16 26 39 77 52 115 l22 70 27 9 c15 5 36 24 46 41 11 18 31 68 45 112 14 44
37 122 51 172 14 51 39 128 56 170 16 43 44 95 62 117 17 21 50 47 72 57 l41
19 65 0 c36 0 126 -10 200 -21 74 -12 180 -22 235 -22 l100 0 56 22 c31 12 76
35 99 52 l42 30 20 46 20 46 -6 31 c-3 17 -8 41 -12 53 l-6 23 28 10 c16 6 44
18 63 28 18 9 54 40 80 69 26 28 66 86 89 130 22 43 48 106 58 140 l17 61 -7
33 c-3 19 -15 48 -25 65 l-19 31 -88 45 c-49 25 -159 74 -244 108 -85 34 -180
75 -211 90 -30 16 -60 34 -66 42 -6 7 -16 66 -22 131 l-11 118 -19 49 c-10 27
-39 78 -64 112 -24 35 -84 100 -132 145 l-88 83 7 285 7 286 -12 42 c-6 23
-20 52 -31 64 -11 12 -33 25 -49 28 l-28 6 -30 -15 c-17 -9 -65 -58 -108 -109
-43 -51 -132 -152 -198 -225 l-119 -133 -14 3 -15 3 -47 165 c-27 91 -61 196
-76 234 l-27 69 -42 44 -42 43 -39 -1z m-13 -199 c6 0 19 -21 31 -46 11 -26
45 -133 75 -238 30 -105 60 -209 66 -230 l10 -40 -87 -83 -88 -84 -17 3 -16 3
4 232 4 233 -17 6 -17 7 -23 -22 c-13 -12 -39 -54 -58 -94 -19 -40 -46 -103
-58 -142 l-24 -70 0 -55 -1 -55 33 -82 32 -82 0 -55 0 -54 -32 -48 c-18 -26
-50 -61 -70 -77 l-36 -29 -11 6 -11 7 0 57 c0 31 -7 84 -15 117 -8 33 -14 83
-15 112 l0 51 34 119 c19 66 55 175 80 243 25 68 69 165 97 215 28 49 67 109
86 133 19 23 39 42 44 42z m671 -891 c9 1 29 -4 45 -10 15 -5 45 -27 66 -47
21 -20 44 -48 51 -62 8 -14 16 -41 19 -60 3 -19 2 -57 -1 -84 l-7 -49 -13 -5
-13 -4 -58 61 -58 61 -50 0 -49 0 -104 -54 c-57 -30 -106 -59 -108 -64 -1 -5
19 -26 47 -46 27 -20 71 -46 97 -57 l48 -22 96 7 95 6 33 -20 32 -20 0 -37 c0
-20 -5 -51 -12 -70 -6 -18 -9 -35 -6 -38 3 -4 19 0 35 9 16 8 46 33 66 55 19
22 40 57 46 78 6 21 11 44 11 51 0 6 8 12 17 12 9 0 59 -25 110 -56 52 -30
158 -81 236 -113 78 -31 147 -60 154 -64 l12 -8 -6 -49 -6 -50 17 -45 18 -45
46 -46 45 -46 -15 -26 c-9 -15 -38 -42 -63 -60 -26 -17 -79 -42 -119 -54 l-71
-23 -105 0 -105 0 -100 37 c-55 20 -134 49 -175 64 l-75 28 -76 1 -77 0 -21
-19 -21 -19 0 -28 0 -28 25 -19 c13 -11 52 -25 87 -32 35 -6 83 -19 108 -27
25 -8 117 -48 205 -88 88 -40 179 -78 203 -84 23 -7 42 -16 42 -21 0 -6 -19
-10 -42 -10 -24 0 -99 10 -168 22 l-125 21 -145 1 -145 1 -53 -24 -53 -24 -40
-45 c-22 -25 -53 -73 -69 -106 -15 -34 -47 -124 -69 -201 -22 -77 -45 -159
-51 -183 l-11 -42 -42 2 -41 3 -16 -103 c-9 -56 -21 -107 -27 -113 l-11 -11
-32 22 c-17 12 -36 20 -43 17 -7 -2 -23 -44 -36 -93 -13 -49 -34 -110 -47
-135 -12 -25 -39 -68 -60 -95 -20 -27 -84 -95 -142 -152 l-105 -103 -21 5
c-12 3 -42 19 -68 35 l-46 29 -27 45 -26 45 -13 69 -12 68 -15 3 c-8 1 -28
-11 -44 -28 -16 -16 -34 -30 -41 -30 -6 0 -15 17 -19 38 -4 20 -10 89 -14 152
l-6 115 -14 0 c-8 0 -30 -20 -49 -45 -19 -25 -41 -45 -49 -45 l-15 0 -20 50
c-11 28 -35 103 -53 168 -19 65 -39 154 -46 198 l-11 80 -21 -3 -20 -3 -33
-60 c-19 -33 -39 -60 -46 -60 l-13 0 -27 75 c-14 41 -32 98 -38 127 -6 29 -14
89 -18 135 l-7 83 -17 3 -16 3 -42 -58 c-23 -32 -47 -58 -53 -58 -7 0 -18 23
-26 50 l-13 50 -5 168 -5 167 -18 0 c-9 0 -38 -18 -63 -41 -26 -22 -51 -38
-57 -34 l-10 6 0 79 c0 43 6 111 14 152 8 40 26 104 40 142 l26 70 -9 9 -9 9
-66 -27 c-37 -15 -70 -25 -72 -22 -3 2 3 24 12 48 10 24 30 62 45 84 15 22 47
59 71 81 23 23 99 87 167 143 69 55 130 101 137 101 7 0 16 -5 19 -11 4 -5
-10 -32 -32 -58 -21 -26 -68 -85 -105 -132 -38 -46 -68 -92 -68 -103 l0 -19
38 6 c20 3 52 9 70 12 l32 8 0 -12 c0 -7 -26 -51 -59 -99 -32 -48 -68 -106
-80 -129 -11 -23 -21 -51 -21 -63 l0 -20 14 0 c8 0 41 16 73 35 32 19 66 35
76 35 9 0 17 -4 17 -9 0 -4 -13 -38 -30 -74 -16 -36 -37 -95 -46 -132 l-17
-66 9 -9 9 -9 58 45 c32 24 63 44 68 44 5 0 9 -8 9 -17 0 -10 -9 -46 -19 -81
-11 -34 -22 -80 -26 -102 l-7 -40 17 0 c10 0 44 16 77 36 l59 36 15 -6 16 -6
-5 -14 c-3 -7 -13 -58 -22 -112 -9 -54 -15 -121 -13 -148 l3 -49 12 -4 c6 -2
37 28 68 67 31 39 62 69 68 67 7 -2 11 -15 10 -28 -1 -13 -5 -69 -9 -125 l-7
-101 13 -8 14 -9 48 54 48 54 11 -11 11 -11 -11 -88 c-6 -49 -11 -117 -11
-151 l0 -62 11 -7 11 -6 62 61 c34 33 67 61 74 61 l12 0 -6 -139 -7 -138 11
-7 10 -6 60 50 c33 27 65 50 72 50 l12 0 -7 -124 -7 -124 12 -7 12 -7 57 56
c31 31 62 56 69 56 l12 0 0 -80 0 -80 13 0 c7 0 29 22 50 48 20 27 48 73 61
103 14 30 36 92 49 139 14 47 33 132 42 189 l18 104 -6 91 -6 91 -21 70 c-12
39 -34 92 -48 119 l-27 49 -118 103 c-65 57 -138 112 -163 124 -24 12 -44 25
-44 29 0 4 14 52 31 106 17 55 45 127 61 160 17 33 42 73 57 88 14 16 44 38
66 50 22 11 108 42 190 69 83 27 177 53 209 56 l60 7 11 65 c5 36 19 81 31
100 11 19 49 57 84 83 36 27 82 65 104 85 21 20 55 64 77 98 21 33 49 65 61
71 13 7 30 14 38 16 8 3 23 6 32 6z m-3459 -822 c111 -4 252 -13 312 -22 61
-8 136 -20 168 -26 32 -7 60 -16 63 -21 4 -6 0 -16 -8 -24 -8 -8 -79 -38 -159
-65 -79 -28 -150 -57 -158 -64 l-13 -13 84 -40 c47 -22 89 -45 93 -52 l7 -12
-13 -13 c-8 -7 -54 -30 -104 -50 -49 -20 -111 -48 -137 -62 -27 -15 -48 -32
-48 -39 l0 -13 58 -12 c31 -6 74 -16 95 -21 20 -5 37 -13 37 -17 0 -5 -29 -27
-63 -50 -35 -23 -74 -52 -86 -65 -13 -14 -20 -29 -16 -35 3 -6 23 -11 44 -11
21 0 53 -3 70 -6 17 -4 31 -12 31 -19 0 -7 -28 -36 -62 -63 -35 -28 -76 -64
-92 -80 -15 -17 -26 -36 -24 -44 l5 -13 76 4 77 3 6 -17 7 -16 -35 -37 c-19
-20 -54 -61 -77 -90 -22 -30 -41 -63 -41 -74 l0 -20 23 5 c12 3 50 9 85 13
l62 7 0 -16 c0 -9 -20 -44 -44 -79 -24 -35 -51 -78 -61 -97 l-17 -33 10 -10 9
-9 61 15 c33 9 67 16 76 16 9 0 16 -6 16 -14 0 -8 -39 -49 -87 -93 -49 -43
-108 -96 -132 -116 -25 -20 -48 -37 -53 -37 -4 0 -8 42 -7 93 0 50 6 126 14
167 l13 75 -8 9 -9 9 -43 -15 c-24 -8 -51 -18 -60 -23 l-18 -7 -5 15 c-4 8 17
67 44 132 28 64 48 122 45 127 l-7 10 -41 -5 c-22 -4 -56 -9 -73 -13 l-33 -6
0 13 c0 8 32 57 70 109 39 52 70 100 70 106 0 7 -12 15 -26 18 -14 4 -46 4
-70 0 l-44 -6 0 19 0 19 75 74 74 74 -10 12 -10 13 -80 7 -79 7 0 12 c0 7 24
34 53 61 29 27 83 71 121 97 l69 49 -14 13 c-8 7 -50 24 -94 38 -44 13 -104
30 -132 37 -29 6 -53 16 -53 21 0 5 26 22 58 38 31 16 92 41 135 56 l78 28 -3
16 -3 16 -122 60 c-68 33 -123 64 -123 69 l0 9 203 -6z m1030 3 l28 0 5 -15 6
-16 -52 -104 -51 -105 7 -11 7 -11 48 6 48 6 6 -9 c3 -6 -19 -45 -49 -88 -30
-43 -62 -95 -72 -116 l-18 -37 11 -11 10 -10 58 16 57 17 10 -10 9 -9 -42 -98
c-22 -54 -44 -115 -46 -136 l-6 -39 16 0 c9 0 44 18 79 40 34 22 67 39 72 37
6 -2 10 -13 9 -23 -1 -10 -10 -70 -20 -132 l-17 -113 16 -16 16 -16 58 57 c32
31 62 55 68 53 l11 -4 -3 -102 -4 -102 12 -14 12 -15 35 30 c18 17 40 30 48
30 l14 0 6 -57 c4 -32 11 -85 16 -118 5 -33 12 -70 14 -82 3 -13 12 -23 20
-23 8 0 31 25 52 55 l36 56 15 -3 15 -3 13 -53 c8 -29 35 -110 61 -180 l48
-127 15 0 15 0 20 64 c12 36 26 66 31 68 6 2 37 -38 70 -89 l58 -93 91 -93 90
-94 89 -60 c49 -33 116 -73 148 -89 l59 -30 -3 -37 -3 -37 -50 0 -50 0 -10
-74 -10 -74 -12 -4 c-6 -2 -30 5 -53 17 l-42 22 -8 -9 c-4 -4 -13 -30 -19 -58
-7 -27 -23 -74 -36 -102 -13 -29 -28 -53 -33 -53 -5 0 -22 16 -36 35 -15 19
-31 35 -37 35 -5 0 -21 -26 -35 -57 -14 -32 -39 -79 -56 -105 -16 -27 -34 -48
-39 -48 -5 0 -18 18 -29 40 -11 22 -25 40 -30 40 -5 0 -22 -24 -36 -52 -15
-29 -39 -71 -54 -93 -15 -22 -63 -65 -106 -96 -44 -31 -111 -74 -151 -95 -39
-21 -75 -36 -79 -32 -3 4 9 47 29 95 19 48 47 131 61 183 14 52 31 147 38 211
l11 116 -17 117 c-9 64 -28 154 -42 199 -15 45 -45 127 -69 182 -23 55 -54
132 -68 171 -14 40 -31 109 -37 154 l-11 82 6 53 7 53 -10 6 c-6 3 -17 3 -25
0 -9 -3 -32 -30 -53 -60 -21 -30 -43 -54 -50 -54 l-13 0 -29 78 c-17 42 -36
97 -43 122 -7 25 -17 74 -23 109 l-11 64 -13 5 -13 4 -45 -46 c-24 -25 -49
-46 -55 -46 l-11 0 3 137 3 138 -16 3 c-8 2 -29 -9 -46 -23 -16 -14 -33 -25
-37 -25 -4 0 -5 20 -1 45 3 25 18 75 32 111 l26 66 -10 10 -10 10 -47 -21
c-26 -12 -51 -21 -56 -21 -5 0 -9 9 -9 20 0 11 14 54 30 96 17 41 46 99 65
127 19 29 42 62 50 74 l16 22 -21 11 -22 12 -62 -11 c-35 -6 -68 -11 -74 -11
-7 0 -12 6 -12 13 0 7 22 45 50 84 27 39 66 85 87 103 20 18 64 45 97 61 34
16 74 29 89 29z m-5245 -201 c23 1 42 -3 42 -7 0 -5 -51 -25 -112 -46 -62 -20
-159 -59 -216 -86 -57 -27 -116 -59 -133 -70 -16 -12 -27 -26 -24 -31 l6 -9
145 0 144 0 0 -10 c0 -6 -60 -40 -132 -75 -73 -36 -164 -87 -203 -113 l-70
-47 0 -20 0 -20 138 3 137 3 0 -14 0 -14 -112 -60 c-62 -34 -150 -79 -195
-102 -46 -23 -89 -41 -98 -41 -8 0 -15 3 -15 8 0 4 14 27 30 52 16 25 30 53
30 64 l0 19 -46 -7 c-26 -3 -93 -19 -151 -36 -57 -16 -110 -30 -118 -30 -8 0
-15 4 -15 9 0 5 15 22 33 38 18 16 88 69 156 117 l122 88 -4 11 c-2 7 -15 12
-28 11 -13 0 -63 -4 -111 -8 l-88 -8 0 9 c0 6 51 43 114 84 62 41 135 87 161
102 l47 28 -12 14 -12 15 -54 0 -54 0 0 14 0 15 108 35 c59 19 152 44 207 56
55 12 154 30 220 40 66 10 139 19 163 19z m706 -502 c6 -2 11 -7 13 -13 1 -5
-32 -70 -75 -144 l-78 -135 -54 -29 c-30 -15 -91 -48 -134 -73 -44 -25 -110
-67 -147 -94 -37 -27 -74 -49 -82 -49 l-16 0 -8 42 -9 43 -16 3 -15 3 -113
-121 c-63 -66 -149 -147 -192 -181 -43 -33 -82 -57 -88 -54 -5 3 -10 19 -10
34 0 15 -5 32 -12 39 -7 7 -17 12 -24 12 -6 0 -39 -25 -73 -55 -33 -29 -88
-73 -122 -96 -34 -23 -105 -62 -157 -86 l-95 -44 -10 10 -10 10 12 47 12 47
-13 13 -13 13 -95 -48 c-52 -27 -131 -60 -176 -74 -45 -14 -128 -32 -185 -41
-57 -8 -162 -18 -234 -21 l-130 -7 -145 12 c-80 6 -197 22 -260 33 l-115 22
-3 16 c-1 8 21 53 51 99 30 47 83 132 120 190 36 58 91 135 121 172 31 37 91
97 133 134 43 37 114 90 158 119 44 29 103 64 132 79 29 14 55 26 58 26 3 0 5
-4 5 -10 0 -5 -30 -49 -66 -97 -37 -49 -76 -107 -87 -131 l-21 -42 11 -11 12
-12 48 20 c26 12 73 28 105 37 31 9 63 16 72 16 9 0 16 -4 16 -10 0 -5 -41
-60 -91 -122 -50 -62 -99 -127 -107 -145 l-16 -33 10 -9 9 -10 80 19 c44 11
90 19 103 20 12 0 22 -5 22 -11 0 -5 -28 -47 -62 -91 -35 -44 -71 -92 -82
-105 l-19 -24 9 -9 9 -9 68 15 c38 8 103 26 145 40 42 14 124 48 181 75 57 27
141 74 185 103 45 30 108 82 141 115 33 34 63 61 67 61 4 0 8 -11 8 -24 0 -13
-9 -54 -21 -91 l-21 -67 12 -12 12 -11 174 180 c95 98 176 176 179 173 3 -3
-4 -40 -16 -81 -12 -42 -19 -83 -16 -91 4 -9 11 -16 16 -16 5 0 45 42 90 93
44 50 116 130 159 177 44 47 83 82 88 78 4 -4 -3 -40 -14 -80 l-22 -72 9 -9 9
-9 88 82 c49 45 131 113 182 152 51 39 95 68 99 64 4 -4 -3 -35 -15 -69 -12
-34 -22 -70 -22 -79 0 -10 5 -18 10 -18 6 0 57 35 113 77 56 42 133 96 172
120 38 23 74 41 79 40z m360 -50 c6 -2 11 -7 13 -13 2 -5 -44 -70 -102 -144
-57 -74 -119 -161 -136 -193 l-31 -59 9 -9 8 -8 49 14 c27 8 55 15 63 15 7 0
13 -6 13 -13 0 -6 -24 -39 -52 -72 -29 -34 -76 -92 -105 -131 -29 -39 -57 -82
-62 -97 l-11 -28 13 -5 c8 -3 42 9 78 26 35 16 74 30 87 30 12 0 22 -2 22 -4
0 -2 -25 -44 -56 -92 -30 -49 -68 -116 -84 -149 -16 -33 -32 -72 -36 -87 l-6
-28 17 0 c9 0 35 13 58 29 23 15 57 36 76 45 l33 18 9 -9 8 -8 -46 -89 c-25
-49 -56 -116 -69 -149 -13 -34 -24 -71 -24 -84 0 -13 5 -23 11 -23 6 0 56 25
111 56 l101 55 10 -10 11 -11 -18 -57 c-10 -32 -32 -85 -49 -118 -16 -33 -57
-102 -90 -153 l-61 -93 -16 3 -15 3 -6 91 c-3 49 -9 96 -13 102 -4 7 -16 12
-26 12 l-19 0 -31 -37 c-17 -21 -49 -74 -70 -118 -22 -44 -55 -136 -75 -205
-20 -69 -56 -188 -81 -264 l-45 -139 14 -14 15 -15 188 0 189 -1 80 12 c44 7
116 21 160 32 44 10 132 39 195 64 63 25 154 66 203 93 48 26 128 76 179 112
51 36 135 108 188 160 53 52 126 136 163 185 37 50 94 142 126 205 32 63 73
156 89 205 17 50 38 131 46 180 l16 90 0 135 c0 74 -5 167 -10 205 -5 39 -20
114 -31 168 -12 53 -19 100 -15 105 4 4 23 -11 41 -33 19 -22 54 -74 78 -115
24 -41 53 -100 65 -130 12 -30 26 -75 33 -100 7 -25 12 -97 12 -160 l1 -115
-22 -77 c-12 -43 -52 -142 -90 -220 -38 -79 -94 -184 -126 -235 -31 -51 -84
-129 -118 -175 -34 -45 -104 -127 -157 -181 -53 -55 -130 -127 -171 -160 -41
-33 -115 -87 -165 -119 -49 -32 -146 -87 -215 -122 -69 -35 -188 -88 -265
-119 -77 -30 -216 -85 -310 -122 -93 -37 -195 -81 -225 -97 -30 -17 -81 -51
-113 -75 -32 -25 -75 -68 -96 -96 -21 -29 -58 -90 -81 -135 -22 -46 -56 -130
-75 -185 -18 -56 -41 -137 -49 -179 -9 -42 -16 -92 -16 -111 0 -19 6 -54 14
-80 7 -25 34 -72 59 -104 25 -32 52 -72 61 -89 8 -18 18 -49 21 -70 l6 -39
-14 -19 -14 -19 -104 0 -104 0 -40 17 c-22 9 -55 31 -73 49 -19 18 -43 50 -55
72 l-20 40 -5 80 -4 80 21 105 c11 58 31 157 45 220 14 63 43 221 66 350 22
129 45 254 52 278 l11 42 41 42 c22 24 73 79 111 124 39 45 85 107 104 139 19
31 49 97 68 146 19 49 45 131 58 182 14 51 39 183 55 292 17 109 30 205 30
213 l0 14 -22 -6 c-13 -4 -35 -9 -50 -12 l-28 -6 0 27 c0 14 9 62 20 104 11
43 36 125 56 182 l36 103 -18 13 c-10 7 -27 13 -37 13 l-19 0 6 32 c3 17 52
126 107 242 56 116 123 257 150 312 l48 101 49 44 c27 24 85 63 128 86 43 24
83 41 88 40z m-628 -507 c8 0 14 -2 14 -4 0 -2 -22 -50 -49 -107 -27 -57 -65
-148 -85 -202 -20 -53 -39 -118 -43 -143 l-6 -46 29 -23 29 -24 -16 -16 -15
-16 -224 11 c-122 6 -332 12 -466 13 -134 1 -244 4 -244 7 0 3 42 26 93 53 50
26 97 47 103 47 6 0 17 -7 24 -15 l12 -15 37 0 37 0 107 73 c58 39 138 101
178 136 l71 64 28 -16 c15 -10 37 -17 49 -17 11 0 47 22 80 50 33 27 101 81
152 120 50 38 98 70 105 70z m4935 -480 c4 0 23 -21 42 -47 19 -27 46 -71 61
-100 14 -28 38 -91 52 -140 l26 -88 5 -117 6 -118 -13 -77 c-6 -43 -26 -121
-42 -173 -17 -52 -45 -126 -64 -165 -18 -38 -64 -115 -101 -170 -38 -55 -77
-101 -86 -103 l-17 -3 0 21 c0 12 17 61 39 109 21 47 57 142 79 211 22 69 48
166 57 215 l17 90 -5 160 -5 160 -30 125 c-16 69 -32 141 -35 162 -3 20 -3 39
0 42 4 3 10 6 14 6z m-2526 -185 c55 -3 110 -8 123 -11 l24 -7 -7 -21 c-3 -11
-7 -27 -8 -35 l-2 -13 50 -15 c28 -8 85 -28 128 -45 42 -17 80 -35 84 -41 3
-5 -6 -19 -20 -29 -15 -11 -27 -26 -27 -34 l0 -15 63 -28 c34 -16 114 -48 177
-71 63 -24 119 -47 124 -52 l10 -8 -27 -28 -28 -29 15 -12 c8 -7 57 -21 108
-32 51 -10 127 -19 168 -19 41 0 103 7 138 15 35 8 68 12 73 9 6 -3 9 -18 7
-32 l-3 -27 33 3 c19 1 57 13 86 27 29 14 62 35 75 49 l22 23 24 94 c12 52 33
116 44 143 12 27 42 79 66 115 24 36 57 79 74 95 17 16 33 27 36 24 3 -3 -13
-70 -36 -149 l-42 -144 -1 -145 0 -145 26 -70 c14 -38 43 -108 64 -155 l38
-85 7 -255 c4 -140 12 -279 18 -308 6 -29 15 -61 21 -71 5 -10 24 -24 41 -30
18 -6 44 -11 59 -11 15 0 67 7 116 15 l89 15 83 41 c46 22 85 39 87 37 2 -1
-10 -53 -26 -115 -15 -62 -44 -190 -63 -286 -19 -96 -45 -243 -58 -328 l-22
-154 -1 -270 0 -270 14 -55 c7 -30 24 -75 36 -100 13 -25 36 -57 52 -71 15
-15 65 -46 111 -69 l83 -43 24 -31 c14 -18 31 -49 40 -69 8 -20 15 -50 15 -67
l0 -31 -37 -16 -38 -16 -155 -1 c-85 0 -167 2 -183 7 l-27 7 -61 82 c-33 44
-84 122 -114 172 l-54 91 -20 80 c-11 44 -31 143 -45 220 -14 77 -30 169 -35
205 -6 36 -17 155 -25 265 -9 110 -20 295 -26 410 -5 116 -17 359 -25 540
l-16 330 -14 75 c-8 41 -28 103 -45 136 l-30 62 -40 36 c-22 20 -47 36 -54 36
-8 0 -17 -3 -19 -7 -3 -5 2 -51 9 -103 7 -52 14 -135 16 -185 l3 -90 -58 -3
c-31 -2 -97 4 -145 12 -48 9 -111 22 -139 31 l-53 16 3 46 2 47 -110 22 c-60
12 -139 32 -174 44 -36 12 -81 30 -102 41 -21 10 -40 23 -43 28 -4 5 -1 21 6
36 l11 26 -10 10 c-6 6 -57 26 -114 46 -57 19 -108 39 -113 43 l-8 8 17 30
c10 16 15 37 12 45 -3 8 -21 18 -39 22 -18 4 -71 20 -117 36 -47 16 -89 33
-95 39 l-10 10 23 24 c13 14 21 31 18 39 -3 7 -33 21 -66 30 -34 10 -115 39
-179 66 -64 27 -152 57 -194 67 l-78 18 0 14 c0 7 14 33 30 57 17 25 50 57 73
73 23 16 62 36 87 45 25 9 56 18 70 21 14 3 70 3 125 1z m-3895 -161 c316 -2
708 -9 870 -15 162 -6 329 -14 370 -17 l75 -7 -3 -63 c-2 -35 -1 -75 2 -88 l6
-24 36 -15 35 -14 -7 -38 c-3 -21 -15 -73 -25 -117 -11 -43 -31 -107 -44 -143
-14 -35 -42 -97 -62 -136 l-38 -72 -107 -111 -108 -111 -19 -44 c-11 -25 -23
-64 -27 -87 -3 -23 -12 -47 -20 -52 l-13 -11 -138 20 c-76 11 -226 34 -333 51
-107 17 -287 44 -400 61 -113 16 -464 70 -780 120 -316 49 -645 101 -730 114
-85 14 -441 68 -790 120 -349 52 -733 111 -853 130 -120 19 -222 37 -228 40
l-10 7 7 36 c4 20 20 66 36 102 16 36 46 82 66 103 20 21 57 49 82 62 25 12
75 32 113 44 37 11 107 27 155 35 48 8 150 22 227 30 77 9 248 22 380 30 132
9 335 20 450 25 116 6 365 16 555 21 190 6 424 12 520 14 96 2 434 2 750 0z
m3483 -219 c34 -3 85 -13 112 -22 28 -9 71 -26 97 -39 26 -13 50 -28 53 -34
l7 -11 -59 -71 c-32 -39 -89 -98 -128 -130 -38 -33 -111 -84 -161 -114 -50
-30 -149 -79 -220 -109 -71 -30 -183 -82 -249 -115 -66 -32 -146 -80 -178
-105 -32 -26 -72 -67 -88 -93 -16 -26 -37 -69 -45 -97 -8 -27 -18 -90 -21
-140 l-5 -90 15 -87 c8 -48 24 -105 34 -125 l18 -38 65 -42 c36 -23 84 -63
108 -89 l42 -46 0 -28 0 -28 -16 -6 c-9 -3 -77 -6 -152 -6 -75 0 -154 5 -175
11 -21 6 -56 26 -77 45 l-39 36 -19 51 c-11 29 -34 120 -52 202 -17 83 -43
195 -56 250 -13 55 -24 107 -24 116 l0 16 68 28 c37 16 105 47 152 71 47 23
133 72 193 108 59 36 142 91 185 123 42 32 130 109 196 173 65 63 148 153 185
200 38 47 91 120 120 163 l53 79 61 -7z m416 -228 c14 -3 43 -13 64 -21 l37
-16 0 -30 0 -30 38 -23 c20 -13 70 -41 110 -62 l72 -38 0 -18 c0 -10 17 -31
37 -48 20 -17 92 -55 160 -86 68 -31 137 -58 154 -62 l30 -6 14 -33 13 -33 31
-15 c17 -9 68 -31 114 -50 47 -19 127 -44 178 -56 52 -12 146 -27 209 -33
l115 -12 6 -91 c4 -51 12 -221 19 -378 7 -158 10 -290 6 -293 -4 -4 -241 32
-529 80 -287 48 -769 127 -1072 177 -302 49 -630 103 -729 119 -98 16 -183 34
-188 39 -6 6 -13 53 -16 105 l-5 94 13 37 12 37 52 54 52 53 165 80 c90 44
221 107 291 140 71 34 165 86 210 116 l83 54 96 99 c52 54 104 111 114 127
l18 28 26 -5z m-7310 -247 c9 0 120 -16 246 -34 127 -19 365 -56 530 -81 165
-25 406 -61 535 -81 129 -19 420 -63 645 -99 226 -35 615 -96 865 -134 250
-39 686 -106 968 -150 283 -43 518 -83 523 -88 l8 -8 -55 -255 c-30 -140 -57
-267 -61 -282 l-5 -28 -21 0 c-11 0 -174 27 -361 60 -188 33 -485 88 -661 121
-176 33 -439 83 -585 110 -146 28 -395 75 -555 105 -159 30 -627 122 -1040
204 -412 82 -808 160 -880 174 -71 14 -186 37 -255 51 -69 15 -129 30 -134 35
l-9 9 23 38 c13 21 46 67 73 103 28 36 81 102 120 148 l69 82 17 0z m10530
-20 l13 0 -5 -22 c-4 -13 -17 -102 -31 -198 -14 -96 -33 -254 -42 -350 l-18
-175 0 -285 0 -285 18 -98 c10 -54 29 -130 42 -169 13 -39 35 -89 48 -112 13
-23 39 -55 58 -73 18 -18 66 -46 106 -62 40 -17 93 -45 118 -63 25 -18 56 -51
69 -73 12 -22 26 -52 29 -68 l6 -27 -27 -12 -28 -12 -180 -1 -180 0 -47 23
-47 24 -69 86 c-38 48 -81 104 -95 124 l-25 37 -41 168 c-22 93 -70 315 -105
494 -36 179 -88 422 -115 540 -28 117 -51 221 -51 231 l0 17 43 30 c23 16 119
69 213 118 93 49 205 112 249 141 44 28 86 52 94 52z m189 -94 c10 -3 71 -19
137 -35 66 -17 179 -45 250 -64 72 -19 207 -56 300 -82 94 -26 269 -75 390
-110 121 -35 373 -114 560 -176 187 -61 462 -156 610 -211 149 -55 362 -136
475 -180 113 -44 282 -112 375 -150 94 -39 292 -127 440 -195 149 -68 362
-172 475 -230 113 -58 266 -140 340 -181 74 -41 205 -117 290 -168 85 -50 219
-135 298 -188 78 -53 188 -131 245 -172 56 -42 104 -80 105 -85 2 -5 -1 -9 -7
-9 -6 0 -109 11 -229 25 -119 14 -379 46 -577 71 -198 25 -621 83 -940 129
-319 46 -670 98 -780 115 -110 17 -315 49 -455 71 -140 22 -460 73 -710 115
-250 41 -664 111 -920 155 -256 44 -521 91 -589 103 l-125 24 -12 16 c-6 9
-19 65 -28 124 -8 59 -18 168 -22 242 l-6 135 11 210 c6 116 18 269 26 340 8
72 21 179 29 238 9 60 18 113 22 118 3 5 13 8 22 5z m-950 -408 l16 -3 22
-100 c12 -55 38 -174 59 -265 20 -91 52 -244 70 -340 19 -96 31 -178 27 -182
-4 -3 -97 9 -207 28 -110 20 -204 40 -210 45 l-9 9 23 143 c13 78 39 207 58
287 18 80 45 183 59 230 14 47 37 100 51 118 l25 33 16 -3z m-10104 -43 c12
-3 127 -27 256 -54 129 -27 474 -97 765 -155 292 -57 670 -132 840 -165 171
-33 465 -90 655 -127 190 -36 500 -95 690 -130 190 -35 541 -100 780 -144 239
-43 453 -83 475 -87 l39 -9 12 -79 c6 -44 21 -106 34 -138 12 -31 39 -80 62
-108 22 -28 60 -63 85 -79 25 -16 67 -36 92 -44 25 -9 80 -20 121 -26 l75 -11
65 7 c36 4 83 13 105 21 22 8 54 28 72 45 l33 31 16 50 17 50 -6 74 -5 73 16
0 c9 0 95 -14 192 -30 96 -17 342 -57 545 -90 204 -32 674 -106 1045 -164 371
-57 857 -132 1080 -166 223 -33 479 -72 570 -86 91 -13 224 -34 295 -45 l130
-21 16 -16 c8 -10 24 -44 33 -77 10 -33 27 -78 38 -100 12 -22 47 -83 79 -135
32 -52 83 -125 114 -162 l55 -66 44 -22 44 -21 97 -10 96 -11 122 11 c67 5
146 17 175 26 l52 16 37 32 c20 17 42 46 49 64 8 18 14 60 14 93 l0 61 -25 76
c-14 42 -23 78 -20 81 3 3 70 -2 148 -12 78 -9 291 -37 472 -61 182 -24 485
-62 675 -85 190 -23 509 -59 710 -81 201 -21 511 -55 690 -74 179 -19 471 -48
650 -64 179 -17 408 -37 510 -46 102 -8 331 -26 510 -40 179 -13 566 -38 860
-55 294 -17 559 -33 588 -36 28 -3 52 -9 52 -14 0 -4 -55 -26 -122 -48 -68
-22 -190 -59 -273 -81 -82 -22 -213 -54 -290 -70 -77 -16 -221 -43 -320 -60
-99 -17 -263 -42 -365 -56 -102 -13 -273 -34 -380 -44 -107 -11 -301 -27 -430
-36 -129 -8 -318 -20 -420 -25 -102 -6 -392 -13 -645 -16 l-460 -7 -345 12
c-190 6 -478 21 -640 32 -162 11 -412 28 -555 39 -143 11 -388 31 -545 45
-157 14 -490 46 -740 71 -250 24 -592 60 -760 80 -168 19 -447 52 -620 74
-173 23 -380 50 -460 61 -80 11 -248 35 -375 55 -126 19 -327 51 -445 70 -118
19 -278 46 -355 60 -77 14 -288 54 -470 90 -181 36 -467 94 -635 130 -168 36
-420 92 -560 125 -140 33 -459 112 -708 175 -248 62 -584 150 -745 195 -160
44 -398 112 -527 151 -129 38 -381 116 -560 174 -179 57 -428 139 -555 183
-126 43 -324 114 -440 156 -115 43 -302 115 -415 160 -113 45 -257 106 -320
135 -63 29 -167 79 -231 111 -64 33 -145 77 -180 100 -35 23 -79 55 -98 73
-18 17 -44 54 -57 81 l-24 50 0 41 c0 22 3 44 6 47 4 4 16 4 28 2z m5354 -215
c10 0 134 -18 277 -40 143 -22 270 -44 282 -50 l22 -9 6 -38 c4 -21 15 -76 26
-122 11 -46 31 -105 45 -132 15 -26 44 -66 66 -88 21 -23 60 -52 86 -65 26
-13 76 -30 110 -36 l62 -13 163 5 164 4 48 25 c27 13 58 36 69 51 l20 28 4 60
4 61 -22 60 c-12 33 -20 63 -17 65 2 2 87 -9 188 -26 101 -16 366 -59 589 -95
223 -36 533 -88 690 -116 157 -28 402 -70 544 -95 143 -25 267 -49 276 -54
l17 -9 8 -103 c4 -57 18 -177 31 -268 13 -91 24 -171 24 -177 l0 -13 -23 0
c-13 0 -203 27 -423 60 -219 32 -590 88 -824 124 -234 36 -627 97 -875 135
-247 39 -603 95 -790 125 -187 30 -493 80 -680 110 -187 31 -351 61 -364 66
l-24 11 6 72 5 72 31 93 c17 52 52 134 77 183 25 49 55 100 66 114 11 14 27
25 36 25z m4529 -764 c16 -3 125 -22 243 -42 l215 -36 13 -16 c6 -9 12 -23 12
-31 0 -9 9 -51 20 -93 11 -43 31 -103 46 -133 14 -31 53 -93 86 -138 33 -45
74 -97 91 -114 17 -18 28 -35 25 -38 -3 -3 -90 6 -194 21 -104 14 -274 38
-379 53 l-190 27 -15 29 -15 30 0 225 c0 124 3 233 7 243 l8 19 27 -6z m1463
-256 c5 0 101 -16 212 -35 112 -19 325 -55 473 -79 149 -25 502 -84 785 -130
283 -47 603 -99 710 -115 107 -17 332 -51 500 -75 168 -25 400 -59 515 -76
116 -16 356 -50 535 -75 179 -24 480 -62 670 -85 190 -22 455 -54 590 -71
l245 -32 23 -14 c12 -7 22 -20 22 -28 l0 -14 -95 -51 -94 -51 -33 5 c-18 3
-170 13 -338 21 -168 8 -541 31 -830 50 -289 20 -606 42 -705 50 -99 8 -344
28 -545 45 -201 17 -520 46 -710 65 -190 20 -493 51 -675 71 -181 19 -391 41
-465 49 -74 8 -289 34 -477 57 -189 23 -343 45 -343 50 0 4 15 14 33 22 17 7
42 24 54 37 12 13 26 37 32 52 6 16 11 50 11 77 0 26 -8 75 -19 109 -10 33
-35 83 -55 111 -20 27 -36 52 -36 55 0 3 4 5 10 5z m-9764 -30 c2 0 52 -19
111 -41 60 -23 243 -90 408 -149 l300 -108 3 -14 3 -14 -88 -66 c-48 -36 -118
-84 -156 -107 -37 -22 -109 -62 -160 -87 -50 -26 -130 -61 -177 -80 -47 -18
-130 -44 -186 -58 -55 -14 -145 -32 -200 -40 -54 -8 -135 -17 -179 -20 -44 -4
-124 -2 -178 4 l-98 10 -56 22 c-31 13 -61 31 -67 40 l-10 16 11 25 11 24 114
58 c62 32 149 81 193 110 l81 53 80 84 c44 46 99 111 121 143 22 33 53 85 68
115 15 30 32 61 37 68 6 6 12 12 14 12z"/>
</g>
</svg>
