<?xml version="1.0" ?>
<svg xmlns="http://www.w3.org/2000/svg" xmlns:ev="http://www.w3.org/2001/xml-events" xmlns:xlink="http://www.w3.org/1999/xlink" baseProfile="full" height="293px" version="1.1" viewBox="219.65149999999994 5469.2515 20773.697 10110.497" width="600px">
	<defs/>
	<path d="M 14094.0,14729.0 C 14073.0,14729.0 14046.0,14725.0 14035.0,14720.0 C 14024.0,14716.0 13990.0,14686.0 13959.0,14653.0 C 13928.0,14621.0 13877.0,14560.0 13846.0,14518.0 C 13815.0,14475.0 13755.0,14383.0 13712.0,14313.0 C 13669.0,14243.0 13599.0,14123.0 13556.0,14048.0 L 13480.0,13912.0 L 13357.0,13836.0 C 13290.0,13795.0 13196.0,13730.0 13149.0,13693.0 C 13101.0,13656.0 12951.0,13536.0 12814.0,13428.0 C 12677.0,13320.0 12537.0,13208.0 12503.0,13178.0 C 12469.0,13149.0 12418.0,13097.0 12389.0,13062.0 L 12336.0,13000.0 L 12281.0,12984.0 C 12250.0,12975.0 12178.0,12954.0 12120.0,12938.0 L 12015.0,12907.0 L 11935.0,12918.0 C 11891.0,12924.0 11779.0,12941.0 11686.0,12954.0 C 11593.0,12968.0 11440.0,12986.0 11346.0,12995.0 C 11252.0,13003.0 11083.0,13014.0 10970.0,13020.0 C 10857.0,13026.0 10590.0,13033.0 10375.0,13036.0 L 9690.0,13031.0 C 9528.0,13025.0 9334.0,13015.0 9260.0,13010.0 C 9186.0,13004.0 9076.0,12992.0 9015.0,12984.0 C 8955.0,12975.0 8852.0,12953.0 8787.0,12934.0 C 8723.0,12916.0 8619.0,12879.0 8557.0,12854.0 C 8496.0,12828.0 8419.0,12796.0 8388.0,12783.0 L 8331.0,12759.0 L 7195.0,12804.0 L 7080.0,12791.0 C 7017.0,12785.0 6921.0,12773.0 6867.0,12765.0 C 6813.0,12757.0 6717.0,12739.0 6652.0,12724.0 C 6588.0,12710.0 6483.0,12681.0 6420.0,12660.0 C 6357.0,12639.0 6242.0,12594.0 6165.0,12559.0 L 6025.0,12495.0 L 5922.0,12391.0 L 5708.0,12287.0 C 5591.0,12230.0 5486.0,12173.0 5476.0,12161.0 L 5456.0,12139.0 L 5468.0,12106.0 C 5475.0,12088.0 5480.0,12069.0 5480.0,12063.0 C 5480.0,12058.0 5470.0,12049.0 5458.0,12043.0 C 5445.0,12037.0 5388.0,11998.0 5330.0,11955.0 C 5272.0,11912.0 5187.0,11840.0 5141.0,11796.0 C 5096.0,11751.0 5030.0,11675.0 4995.0,11625.0 C 4961.0,11576.0 4885.0,11454.0 4826.0,11355.0 C 4768.0,11257.0 4712.0,11152.0 4703.0,11123.0 L 4687.0,11071.0 L 4710.0,11020.0 L 4755.0,11008.0 C 4780.0,11001.0 4800.0,10993.0 4800.0,10989.0 C 4800.0,10985.0 4758.0,10979.0 4707.0,10976.0 C 4657.0,10972.0 4530.0,10965.0 4425.0,10960.0 C 4321.0,10954.0 4105.0,10941.0 3945.0,10930.0 C 3786.0,10919.0 3536.0,10898.0 3390.0,10884.0 C 3244.0,10870.0 3078.0,10850.0 3021.0,10839.0 C 2964.0,10828.0 2876.0,10804.0 2825.0,10786.0 C 2774.0,10768.0 2708.0,10736.0 2678.0,10716.0 C 2647.0,10696.0 2600.0,10656.0 2572.0,10627.0 C 2545.0,10597.0 2509.0,10547.0 2492.0,10514.0 C 2476.0,10482.0 2453.0,10426.0 2442.0,10390.0 C 2430.0,10354.0 2413.0,10292.0 2404.0,10251.0 L 2388.0,10178.0 L 2288.0,10071.0 C 2233.0,10013.0 2160.0,9922.0 2125.0,9870.0 C 2090.0,9818.0 2048.0,9743.0 2031.0,9705.0 C 2015.0,9666.0 1995.0,9608.0 1987.0,9575.0 C 1978.0,9542.0 1969.0,9486.0 1965.0,9450.0 L 1958.0,9385.0 L 1974.0,9312.0 C 1982.0,9272.0 2001.0,9217.0 2017.0,9189.0 L 2044.0,9138.0 L 2116.0,9071.0 C 2155.0,9035.0 2232.0,8978.0 2286.0,8944.0 C 2341.0,8911.0 2446.0,8850.0 2520.0,8811.0 C 2594.0,8771.0 2736.0,8700.0 2835.0,8653.0 C 2934.0,8606.0 3065.0,8546.0 3125.0,8520.0 L 3350.0,8423.0 C 3413.0,8396.0 3511.0,8354.0 3568.0,8331.0 L 3670.0,8288.0 L 3670.0,8271.0 C 3670.0,8262.0 3649.0,8218.0 3624.0,8173.0 L 3577.0,8091.0 L 3508.0,8016.0 C 3470.0,7975.0 3409.0,7921.0 3372.0,7897.0 C 3335.0,7872.0 3253.0,7827.0 3190.0,7796.0 C 3127.0,7766.0 3058.0,7727.0 3037.0,7710.0 C 3017.0,7693.0 2988.0,7657.0 2972.0,7632.0 L 2945.0,7585.0 L 2945.0,7455.0 L 2972.0,7410.0 C 2986.0,7385.0 3011.0,7355.0 3027.0,7344.0 C 3043.0,7332.0 3074.0,7313.0 3096.0,7302.0 C 3118.0,7291.0 3163.0,7275.0 3196.0,7266.0 C 3228.0,7258.0 3300.0,7247.0 3355.0,7241.0 L 3455.0,7231.0 L 3585.0,7240.0 C 3657.0,7245.0 3751.0,7256.0 3795.0,7264.0 C 3839.0,7272.0 3904.0,7286.0 3940.0,7295.0 C 3975.0,7304.0 4056.0,7329.0 4119.0,7351.0 C 4183.0,7373.0 4285.0,7414.0 4345.0,7444.0 C 4406.0,7473.0 4498.0,7523.0 4550.0,7554.0 C 4602.0,7586.0 4681.0,7639.0 4725.0,7672.0 C 4769.0,7706.0 4828.0,7755.0 4857.0,7783.0 L 4909.0,7833.0 L 4962.0,7817.0 C 4991.0,7808.0 5125.0,7767.0 5260.0,7725.0 C 5395.0,7684.0 5649.0,7607.0 5825.0,7555.0 C 6001.0,7504.0 6273.0,7427.0 6430.0,7385.0 C 6587.0,7343.0 6877.0,7268.0 7076.0,7219.0 C 7275.0,7171.0 7601.0,7095.0 7801.0,7051.0 C 8001.0,7007.0 8338.0,6937.0 8550.0,6895.0 C 8762.0,6854.0 9066.0,6797.0 9225.0,6770.0 C 9385.0,6743.0 9628.0,6703.0 9765.0,6681.0 C 9903.0,6659.0 10150.0,6623.0 10315.0,6601.0 C 10480.0,6579.0 10671.0,6554.0 10740.0,6545.0 L 11035.0,6510.0 C 11129.0,6499.0 11324.0,6479.0 11470.0,6466.0 C 11616.0,6452.0 11881.0,6429.0 12060.0,6415.0 C 12239.0,6402.0 12493.0,6383.0 12625.0,6375.0 C 12757.0,6367.0 12998.0,6353.0 13160.0,6345.0 C 13322.0,6337.0 13673.0,6325.0 13939.0,6319.0 L 14874.0,6319.0 C 15122.0,6325.0 15415.0,6337.0 15525.0,6345.0 C 15635.0,6353.0 15804.0,6367.0 15900.0,6375.0 C 15996.0,6383.0 16122.0,6395.0 16180.0,6401.0 C 16238.0,6407.0 16357.0,6420.0 16445.0,6431.0 C 16533.0,6442.0 16682.0,6462.0 16775.0,6476.0 C 16869.0,6489.0 17042.0,6519.0 17160.0,6541.0 C 17278.0,6563.0 17454.0,6599.0 17551.0,6621.0 C 17648.0,6642.0 17794.0,6678.0 17876.0,6700.0 C 17958.0,6723.0 18113.0,6770.0 18220.0,6806.0 C 18327.0,6842.0 18486.0,6901.0 18575.0,6936.0 C 18663.0,6972.0 18789.0,7030.0 18855.0,7064.0 C 18921.0,7099.0 19008.0,7147.0 19049.0,7171.0 C 19089.0,7195.0 19152.0,7243.0 19189.0,7276.0 L 19255.0,7337.0 L 19239.0,7371.0 C 19230.0,7390.0 19193.0,7441.0 19157.0,7486.0 C 19121.0,7530.0 19023.0,7633.0 18939.0,7713.0 C 18854.0,7794.0 18718.0,7912.0 18635.0,7975.0 C 18553.0,8039.0 18400.0,8148.0 18295.0,8219.0 C 18191.0,8290.0 18040.0,8388.0 17960.0,8437.0 C 17880.0,8486.0 17754.0,8560.0 17680.0,8602.0 C 17606.0,8644.0 17464.0,8720.0 17365.0,8772.0 C 17266.0,8823.0 17124.0,8895.0 17050.0,8932.0 C 16976.0,8969.0 16841.0,9033.0 16750.0,9075.0 C 16659.0,9117.0 16491.0,9191.0 16375.0,9240.0 C 16260.0,9288.0 16091.0,9358.0 16000.0,9395.0 C 15909.0,9432.0 15745.0,9496.0 15635.0,9537.0 C 15525.0,9578.0 15309.0,9654.0 15155.0,9706.0 C 15001.0,9757.0 14796.0,9824.0 14700.0,9854.0 C 14604.0,9884.0 14480.0,9922.0 14425.0,9939.0 C 14370.0,9955.0 14170.0,10012.0 13980.0,10063.0 C 13790.0,10115.0 13596.0,10168.0 13548.0,10180.0 L 13460.0,10203.0 L 13460.0,10215.0 C 13460.0,10221.0 13472.0,10237.0 13486.0,10251.0 C 13500.0,10264.0 13526.0,10299.0 13542.0,10328.0 L 13573.0,10381.0 L 13589.0,10374.0 C 13598.0,10370.0 13616.0,10365.0 13630.0,10363.0 L 13655.0,10359.0 L 13681.0,10387.0 C 13696.0,10402.0 13735.0,10469.0 13768.0,10535.0 C 13802.0,10601.0 13834.0,10675.0 13840.0,10700.0 L 13851.0,10745.0 L 13881.0,10762.0 C 13897.0,10771.0 13922.0,10800.0 13937.0,10826.0 C 13953.0,10852.0 13983.0,10896.0 14005.0,10925.0 C 14027.0,10954.0 14071.0,11008.0 14104.0,11046.0 C 14136.0,11084.0 14176.0,11144.0 14194.0,11180.0 L 14225.0,11244.0 L 14302.0,11262.0 L 14331.0,11308.0 C 14347.0,11334.0 14370.0,11385.0 14383.0,11423.0 L 14405.0,11493.0 L 14432.0,11502.0 C 14447.0,11507.0 14468.0,11526.0 14478.0,11543.0 C 14489.0,11561.0 14509.0,11611.0 14523.0,11655.0 C 14537.0,11699.0 14560.0,11777.0 14574.0,11827.0 C 14588.0,11878.0 14613.0,11955.0 14630.0,11997.0 C 14646.0,12040.0 14674.0,12092.0 14692.0,12114.0 C 14709.0,12135.0 14742.0,12161.0 14764.0,12171.0 L 14805.0,12190.0 L 14870.0,12190.0 C 14906.0,12190.0 14996.0,12180.0 15070.0,12169.0 C 15144.0,12157.0 15250.0,12147.0 15305.0,12147.0 L 15405.0,12147.0 L 15461.0,12169.0 C 15492.0,12181.0 15537.0,12204.0 15560.0,12221.0 L 15602.0,12251.0 L 15642.0,12343.0 L 15636.0,12374.0 C 15633.0,12391.0 15628.0,12415.0 15624.0,12427.0 L 15618.0,12450.0 L 15646.0,12460.0 C 15662.0,12466.0 15690.0,12478.0 15709.0,12488.0 C 15727.0,12497.0 15763.0,12528.0 15789.0,12557.0 C 15815.0,12585.0 15855.0,12643.0 15878.0,12687.0 C 15900.0,12730.0 15926.0,12793.0 15936.0,12827.0 L 15953.0,12888.0 L 15946.0,12921.0 C 15943.0,12940.0 15931.0,12969.0 15921.0,12986.0 L 15902.0,13017.0 L 15814.0,13062.0 C 15765.0,13087.0 15655.0,13136.0 15570.0,13170.0 C 15485.0,13204.0 15390.0,13245.0 15359.0,13260.0 C 15329.0,13276.0 15299.0,13294.0 15293.0,13302.0 C 15287.0,13309.0 15277.0,13368.0 15271.0,13433.0 L 15260.0,13551.0 L 15241.0,13600.0 C 15231.0,13627.0 15202.0,13678.0 15177.0,13712.0 C 15153.0,13747.0 15093.0,13812.0 15045.0,13857.0 L 14957.0,13940.0 L 14971.0,14511.0 L 14959.0,14553.0 C 14953.0,14576.0 14939.0,14605.0 14928.0,14617.0 C 14917.0,14629.0 14895.0,14642.0 14879.0,14645.0 L 14851.0,14651.0 L 14821.0,14636.0 C 14804.0,14627.0 14756.0,14578.0 14713.0,14527.0 C 14670.0,14476.0 14581.0,14375.0 14515.0,14302.0 L 14396.0,14169.0 L 14367.0,14175.0 L 14320.0,14340.0 C 14293.0,14431.0 14259.0,14536.0 14244.0,14574.0 L 14217.0,14643.0 L 14133.0,14730.0 L 14094.0,14729.0 M 14081.0,14530.0 C 14087.0,14530.0 14100.0,14509.0 14112.0,14484.0 C 14123.0,14458.0 14157.0,14351.0 14187.0,14246.0 L 14263.0,13976.0 L 14088.0,13809.0 L 14055.0,13815.0 L 14063.0,14280.0 L 14029.0,14293.0 L 14006.0,14271.0 C 13993.0,14259.0 13967.0,14217.0 13948.0,14177.0 C 13929.0,14137.0 13902.0,14074.0 13890.0,14035.0 L 13866.0,13965.0 L 13865.0,13855.0 L 13930.0,13691.0 L 13930.0,13582.0 L 13898.0,13534.0 C 13880.0,13508.0 13848.0,13473.0 13828.0,13457.0 L 13792.0,13428.0 L 13770.0,13441.0 L 13770.0,13498.0 C 13770.0,13529.0 13763.0,13582.0 13755.0,13615.0 C 13747.0,13648.0 13741.0,13698.0 13740.0,13727.0 L 13740.0,13778.0 L 13774.0,13897.0 C 13793.0,13963.0 13829.0,14072.0 13854.0,14140.0 C 13879.0,14208.0 13923.0,14305.0 13951.0,14355.0 C 13979.0,14404.0 14018.0,14464.0 14037.0,14488.0 C 14056.0,14511.0 14076.0,14530.0 14081.0,14530.0 M 14752.0,13639.0 C 14761.0,13640.0 14781.0,13635.0 14797.0,13629.0 C 14812.0,13624.0 14842.0,13602.0 14863.0,13582.0 C 14884.0,13562.0 14907.0,13534.0 14914.0,13520.0 C 14922.0,13506.0 14930.0,13479.0 14933.0,13460.0 C 14936.0,13441.0 14935.0,13403.0 14932.0,13376.0 L 14925.0,13327.0 L 14899.0,13318.0 L 14783.0,13440.0 L 14684.0,13440.0 L 14580.0,13386.0 C 14523.0,13356.0 14474.0,13327.0 14472.0,13322.0 C 14471.0,13317.0 14491.0,13296.0 14519.0,13276.0 C 14546.0,13256.0 14590.0,13230.0 14616.0,13219.0 L 14664.0,13197.0 L 14855.0,13210.0 L 14920.0,13170.0 L 14920.0,13133.0 C 14920.0,13113.0 14915.0,13082.0 14908.0,13063.0 C 14902.0,13045.0 14899.0,13028.0 14902.0,13025.0 C 14905.0,13021.0 14921.0,13025.0 14937.0,13034.0 C 14953.0,13042.0 14983.0,13067.0 15003.0,13089.0 C 15022.0,13111.0 15043.0,13146.0 15049.0,13167.0 C 15055.0,13188.0 15060.0,13211.0 15060.0,13218.0 C 15060.0,13224.0 15068.0,13230.0 15077.0,13230.0 C 15086.0,13230.0 15136.0,13205.0 15187.0,13174.0 C 15239.0,13144.0 15345.0,13093.0 15423.0,13061.0 C 15501.0,13030.0 15570.0,13001.0 15577.0,12997.0 L 15589.0,12989.0 L 15577.0,12890.0 L 15612.0,12800.0 L 15703.0,12708.0 L 15688.0,12682.0 C 15679.0,12667.0 15650.0,12640.0 15625.0,12622.0 C 15599.0,12605.0 15546.0,12580.0 15506.0,12568.0 L 15435.0,12545.0 L 15225.0,12545.0 L 14875.0,12674.0 L 14722.0,12675.0 L 14680.0,12637.0 L 14680.0,12581.0 L 14705.0,12562.0 C 14718.0,12551.0 14757.0,12537.0 14792.0,12530.0 C 14827.0,12524.0 14875.0,12511.0 14900.0,12503.0 C 14925.0,12495.0 15017.0,12455.0 15105.0,12415.0 C 15193.0,12375.0 15284.0,12337.0 15308.0,12331.0 C 15331.0,12324.0 15350.0,12315.0 15350.0,12310.0 C 15350.0,12304.0 15331.0,12300.0 15308.0,12300.0 C 15284.0,12300.0 15209.0,12310.0 15140.0,12322.0 L 15015.0,12343.0 L 14725.0,12345.0 L 14619.0,12297.0 L 14579.0,12252.0 C 14557.0,12227.0 14526.0,12179.0 14510.0,12146.0 C 14495.0,12112.0 14463.0,12022.0 14441.0,11945.0 C 14419.0,11868.0 14396.0,11786.0 14390.0,11762.0 L 14379.0,11720.0 L 14296.0,11725.0 L 14280.0,11622.0 C 14271.0,11566.0 14259.0,11515.0 14253.0,11509.0 L 14242.0,11498.0 L 14210.0,11520.0 C 14193.0,11532.0 14174.0,11540.0 14167.0,11537.0 C 14160.0,11535.0 14144.0,11493.0 14131.0,11444.0 C 14118.0,11395.0 14097.0,11334.0 14084.0,11309.0 C 14072.0,11284.0 14045.0,11241.0 14024.0,11214.0 C 14004.0,11187.0 13940.0,11119.0 13882.0,11062.0 L 13777.0,10959.0 L 13756.0,10964.0 C 13744.0,10967.0 13714.0,10983.0 13688.0,10999.0 L 13642.0,11028.0 L 13589.0,11118.0 L 13564.0,11255.0 L 13549.0,11258.0 C 13541.0,11259.0 13521.0,11247.0 13505.0,11230.0 C 13489.0,11214.0 13471.0,11200.0 13464.0,11200.0 C 13458.0,11200.0 13449.0,11217.0 13445.0,11238.0 C 13441.0,11258.0 13435.0,11327.0 13431.0,11390.0 L 13425.0,11505.0 L 13411.0,11505.0 C 13403.0,11505.0 13381.0,11485.0 13362.0,11460.0 C 13343.0,11435.0 13321.0,11415.0 13313.0,11415.0 L 13298.0,11415.0 L 13278.0,11465.0 C 13267.0,11493.0 13243.0,11568.0 13225.0,11633.0 C 13206.0,11698.0 13186.0,11787.0 13179.0,11831.0 L 13168.0,11911.0 L 13127.0,11905.0 L 13094.0,11845.0 C 13075.0,11812.0 13055.0,11785.0 13048.0,11785.0 L 13035.0,11785.0 L 13008.0,11860.0 C 12994.0,11901.0 12976.0,11958.0 12970.0,11987.0 C 12964.0,12016.0 12956.0,12076.0 12952.0,12122.0 L 12945.0,12205.0 L 12912.0,12211.0 L 12870.0,12153.0 C 12847.0,12121.0 12823.0,12095.0 12817.0,12095.0 C 12810.0,12095.0 12799.0,12118.0 12791.0,12145.0 L 12778.0,12195.0 L 12768.0,12530.0 L 12750.0,12530.0 C 12741.0,12530.0 12712.0,12512.0 12687.0,12489.0 C 12661.0,12467.0 12636.0,12451.0 12630.0,12455.0 L 12620.0,12461.0 L 12620.0,12540.0 C 12620.0,12583.0 12626.0,12651.0 12634.0,12692.0 C 12642.0,12732.0 12660.0,12796.0 12674.0,12834.0 L 12700.0,12904.0 L 12682.0,12922.0 L 12616.0,12895.0 C 12579.0,12880.0 12546.0,12870.0 12544.0,12873.0 C 12541.0,12875.0 12547.0,12897.0 12556.0,12921.0 C 12566.0,12945.0 12586.0,12983.0 12601.0,13005.0 C 12616.0,13027.0 12648.0,13064.0 12672.0,13086.0 C 12695.0,13109.0 12771.0,13173.0 12839.0,13229.0 C 12908.0,13284.0 12969.0,13330.0 12976.0,13330.0 C 12983.0,13330.0 12992.0,13325.0 12995.0,13319.0 C 12999.0,13314.0 12985.0,13287.0 12963.0,13261.0 C 12942.0,13235.0 12895.0,13176.0 12858.0,13129.0 C 12820.0,13083.0 12790.0,13037.0 12790.0,13026.0 L 12790.0,13007.0 L 12828.0,13013.0 C 12848.0,13016.0 12880.0,13022.0 12898.0,13025.0 L 12930.0,13033.0 L 12930.0,13021.0 C 12930.0,13014.0 12904.0,12970.0 12871.0,12922.0 C 12839.0,12874.0 12803.0,12816.0 12791.0,12793.0 C 12780.0,12770.0 12770.0,12742.0 12770.0,12730.0 L 12770.0,12710.0 L 12784.0,12710.0 C 12792.0,12710.0 12825.0,12726.0 12857.0,12745.0 C 12889.0,12764.0 12923.0,12780.0 12933.0,12780.0 C 12942.0,12780.0 12950.0,12776.0 12950.0,12771.0 C 12950.0,12767.0 12937.0,12733.0 12920.0,12697.0 C 12904.0,12661.0 12883.0,12602.0 12874.0,12565.0 L 12857.0,12499.0 L 12875.0,12481.0 L 12933.0,12526.0 C 12965.0,12550.0 12996.0,12570.0 13001.0,12570.0 C 13006.0,12570.0 13010.0,12562.0 13010.0,12553.0 C 13010.0,12543.0 13001.0,12507.0 12991.0,12472.0 C 12980.0,12438.0 12969.0,12392.0 12965.0,12370.0 L 12958.0,12330.0 L 12975.0,12330.0 C 12985.0,12330.0 13019.0,12346.0 13052.0,12366.0 L 13111.0,12402.0 L 13142.0,12390.0 L 13137.0,12376.0 C 13134.0,12369.0 13124.0,12318.0 13115.0,12264.0 C 13106.0,12210.0 13100.0,12143.0 13102.0,12116.0 L 13105.0,12067.0 L 13117.0,12063.0 C 13123.0,12061.0 13154.0,12091.0 13185.0,12130.0 C 13216.0,12169.0 13247.0,12199.0 13253.0,12197.0 C 13260.0,12195.0 13264.0,12182.0 13263.0,12169.0 L 13247.0,11943.0 L 13274.0,11926.0 L 13370.0,12034.0 L 13392.0,12012.0 L 13381.0,11924.0 C 13375.0,11875.0 13370.0,11807.0 13370.0,11773.0 L 13370.0,11711.0 L 13392.0,11698.0 L 13454.0,11759.0 C 13488.0,11792.0 13521.0,11820.0 13528.0,11820.0 L 13540.0,11820.0 L 13527.0,11543.0 L 13548.0,11530.0 L 13608.0,11580.0 C 13641.0,11607.0 13673.0,11630.0 13680.0,11630.0 L 13692.0,11630.0 L 13678.0,11382.0 L 13702.0,11368.0 L 13759.0,11424.0 C 13790.0,11455.0 13821.0,11480.0 13828.0,11480.0 L 13840.0,11480.0 L 13840.0,11320.0 L 13853.0,11320.0 C 13860.0,11320.0 13882.0,11342.0 13903.0,11368.0 C 13923.0,11395.0 13951.0,11441.0 13964.0,11471.0 C 13978.0,11501.0 14000.0,11563.0 14013.0,11610.0 C 14027.0,11657.0 14046.0,11742.0 14055.0,11799.0 L 14073.0,11903.0 L 14061.0,12085.0 L 14040.0,12155.0 C 14028.0,12194.0 14006.0,12247.0 13992.0,12274.0 L 13965.0,12323.0 L 13847.0,12426.0 C 13782.0,12483.0 13709.0,12538.0 13684.0,12550.0 C 13660.0,12562.0 13640.0,12575.0 13640.0,12579.0 C 13640.0,12583.0 13654.0,12631.0 13671.0,12685.0 C 13688.0,12740.0 13716.0,12812.0 13732.0,12845.0 C 13749.0,12878.0 13774.0,12918.0 13789.0,12933.0 C 13803.0,12949.0 13833.0,12971.0 13855.0,12983.0 C 13877.0,12994.0 13963.0,13025.0 14045.0,13052.0 C 14128.0,13079.0 14222.0,13105.0 14254.0,13108.0 L 14314.0,13115.0 L 14325.0,13180.0 C 14330.0,13216.0 14344.0,13261.0 14356.0,13280.0 C 14367.0,13299.0 14405.0,13337.0 14440.0,13363.0 C 14476.0,13390.0 14522.0,13428.0 14544.0,13448.0 C 14565.0,13468.0 14599.0,13512.0 14621.0,13546.0 C 14642.0,13579.0 14670.0,13611.0 14682.0,13617.0 C 14695.0,13624.0 14712.0,13631.0 14720.0,13633.0 C 14728.0,13636.0 14743.0,13639.0 14752.0,13639.0 M 11293.0,12817.0 C 11404.0,12813.0 11545.0,12804.0 11605.0,12795.0 C 11666.0,12787.0 11741.0,12775.0 11773.0,12769.0 C 11805.0,12762.0 11833.0,12753.0 11836.0,12748.0 C 11840.0,12742.0 11836.0,12732.0 11828.0,12724.0 C 11820.0,12716.0 11749.0,12686.0 11669.0,12659.0 C 11590.0,12631.0 11519.0,12602.0 11511.0,12595.0 L 11498.0,12582.0 L 11582.0,12542.0 C 11629.0,12520.0 11671.0,12497.0 11675.0,12490.0 L 11682.0,12478.0 L 11669.0,12465.0 C 11661.0,12458.0 11615.0,12435.0 11565.0,12415.0 C 11516.0,12395.0 11454.0,12367.0 11428.0,12353.0 C 11401.0,12338.0 11380.0,12321.0 11380.0,12314.0 L 11380.0,12301.0 L 11438.0,12289.0 C 11469.0,12283.0 11512.0,12273.0 11533.0,12268.0 C 11553.0,12263.0 11570.0,12255.0 11570.0,12251.0 C 11570.0,12246.0 11541.0,12224.0 11507.0,12201.0 C 11472.0,12178.0 11433.0,12149.0 11421.0,12136.0 C 11408.0,12122.0 11401.0,12107.0 11405.0,12101.0 C 11408.0,12095.0 11428.0,12090.0 11449.0,12090.0 C 11470.0,12090.0 11502.0,12087.0 11519.0,12084.0 C 11536.0,12080.0 11550.0,12072.0 11550.0,12065.0 C 11550.0,12058.0 11522.0,12029.0 11488.0,12002.0 C 11453.0,11974.0 11412.0,11938.0 11396.0,11922.0 C 11381.0,11905.0 11370.0,11886.0 11372.0,11878.0 L 11377.0,11865.0 L 11530.0,11872.0 L 11543.0,11839.0 L 11508.0,11802.0 C 11489.0,11782.0 11454.0,11741.0 11431.0,11712.0 C 11409.0,11682.0 11390.0,11649.0 11390.0,11638.0 L 11390.0,11618.0 L 11413.0,11623.0 C 11425.0,11626.0 11463.0,11632.0 11498.0,11636.0 L 11560.0,11643.0 L 11560.0,11627.0 C 11560.0,11618.0 11540.0,11583.0 11516.0,11548.0 C 11492.0,11513.0 11465.0,11470.0 11455.0,11451.0 L 11438.0,11418.0 L 11457.0,11399.0 L 11518.0,11414.0 C 11551.0,11423.0 11585.0,11430.0 11594.0,11430.0 C 11603.0,11430.0 11610.0,11424.0 11610.0,11416.0 C 11610.0,11408.0 11571.0,11367.0 11523.0,11323.0 C 11474.0,11280.0 11415.0,11227.0 11391.0,11207.0 C 11366.0,11187.0 11343.0,11170.0 11338.0,11170.0 C 11334.0,11170.0 11330.0,11212.0 11331.0,11263.0 C 11331.0,11313.0 11337.0,11389.0 11345.0,11430.0 L 11358.0,11505.0 L 11341.0,11523.0 L 11298.0,11508.0 C 11274.0,11500.0 11247.0,11490.0 11238.0,11485.0 L 11220.0,11478.0 L 11215.0,11493.0 C 11211.0,11501.0 11232.0,11560.0 11259.0,11625.0 C 11287.0,11689.0 11307.0,11747.0 11304.0,11752.0 L 11297.0,11762.0 L 11256.0,11757.0 C 11234.0,11753.0 11200.0,11748.0 11183.0,11744.0 L 11150.0,11738.0 L 11150.0,11751.0 C 11150.0,11759.0 11182.0,11808.0 11220.0,11860.0 C 11259.0,11912.0 11290.0,11960.0 11290.0,11966.0 C 11290.0,11973.0 11278.0,11981.0 11264.0,11984.0 C 11250.0,11988.0 11218.0,11988.0 11194.0,11984.0 L 11150.0,11978.0 L 11150.0,12016.0 L 11299.0,12164.0 L 11279.0,12189.0 L 11120.0,12203.0 L 11120.0,12215.0 C 11120.0,12222.0 11144.0,12249.0 11173.0,12276.0 C 11202.0,12303.0 11256.0,12347.0 11294.0,12373.0 L 11363.0,12422.0 L 11349.0,12435.0 C 11341.0,12442.0 11299.0,12459.0 11255.0,12473.0 C 11211.0,12486.0 11151.0,12503.0 11123.0,12510.0 C 11094.0,12516.0 11070.0,12526.0 11070.0,12531.0 C 11070.0,12536.0 11096.0,12553.0 11128.0,12569.0 C 11159.0,12585.0 11220.0,12610.0 11263.0,12625.0 L 11341.0,12653.0 L 11335.0,12685.0 L 11213.0,12745.0 C 11145.0,12778.0 11090.0,12809.0 11090.0,12814.0 L 11090.0,12823.0 L 11293.0,12817.0 M 12323.0,12820.0 L 12351.0,12820.0 L 12362.0,12789.0 L 12259.0,12580.0 L 12273.0,12558.0 L 12369.0,12570.0 L 12375.0,12561.0 C 12378.0,12555.0 12356.0,12516.0 12326.0,12473.0 C 12296.0,12430.0 12264.0,12378.0 12254.0,12357.0 L 12236.0,12320.0 L 12257.0,12299.0 L 12372.0,12332.0 L 12391.0,12313.0 L 12349.0,12215.0 C 12327.0,12161.0 12305.0,12100.0 12303.0,12079.0 L 12297.0,12040.0 L 12313.0,12040.0 C 12322.0,12040.0 12357.0,12058.0 12392.0,12080.0 C 12426.0,12102.0 12459.0,12119.0 12464.0,12117.0 C 12470.0,12115.0 12474.0,12104.0 12473.0,12094.0 C 12472.0,12084.0 12463.0,12024.0 12453.0,11962.0 L 12436.0,11849.0 L 12468.0,11817.0 L 12526.0,11874.0 C 12558.0,11905.0 12588.0,11929.0 12594.0,11927.0 L 12605.0,11923.0 L 12598.0,11719.0 L 12622.0,11690.0 L 12657.0,11720.0 C 12675.0,11737.0 12697.0,11750.0 12705.0,11750.0 L 12719.0,11750.0 L 12725.0,11693.0 C 12729.0,11661.0 12736.0,11608.0 12741.0,11575.0 C 12746.0,11542.0 12753.0,11505.0 12755.0,11493.0 C 12758.0,11480.0 12767.0,11470.0 12775.0,11470.0 C 12783.0,11470.0 12806.0,11495.0 12827.0,11525.0 L 12863.0,11581.0 L 12893.0,11575.0 L 12906.0,11522.0 C 12914.0,11493.0 12941.0,11412.0 12967.0,11342.0 L 13015.0,11215.0 L 13045.0,11215.0 L 13065.0,11279.0 C 13077.0,11315.0 13091.0,11345.0 13096.0,11347.0 C 13102.0,11349.0 13133.0,11309.0 13166.0,11258.0 L 13224.0,11165.0 L 13405.0,10978.0 L 13494.0,10918.0 C 13543.0,10885.0 13610.0,10845.0 13642.0,10829.0 L 13701.0,10799.0 L 13695.0,10725.0 L 13595.0,10725.0 L 13575.0,10577.0 L 13563.0,10573.0 C 13557.0,10571.0 13533.0,10578.0 13510.0,10590.0 L 13468.0,10612.0 L 13460.0,10603.0 C 13456.0,10599.0 13447.0,10573.0 13441.0,10545.0 C 13434.0,10518.0 13418.0,10471.0 13405.0,10443.0 C 13392.0,10414.0 13377.0,10390.0 13372.0,10390.0 C 13367.0,10390.0 13350.0,10406.0 13336.0,10425.0 C 13321.0,10444.0 13305.0,10460.0 13299.0,10460.0 C 13294.0,10460.0 13278.0,10434.0 13264.0,10403.0 C 13250.0,10371.0 13225.0,10324.0 13208.0,10298.0 C 13192.0,10271.0 13174.0,10250.0 13169.0,10250.0 C 13164.0,10250.0 13151.0,10268.0 13140.0,10290.0 C 13129.0,10312.0 13115.0,10330.0 13110.0,10330.0 C 13105.0,10330.0 13088.0,10306.0 13074.0,10278.0 C 13059.0,10249.0 13035.0,10207.0 13020.0,10185.0 C 13005.0,10163.0 12957.0,10120.0 12914.0,10089.0 C 12870.0,10058.0 12803.0,10015.0 12763.0,9994.0 C 12724.0,9973.0 12688.0,9958.0 12684.0,9962.0 C 12681.0,9966.0 12693.0,10009.0 12713.0,10057.0 C 12732.0,10105.0 12760.0,10188.0 12774.0,10240.0 C 12788.0,10292.0 12805.0,10387.0 12812.0,10451.0 L 12823.0,10567.0 L 12806.0,10684.0 C 12797.0,10748.0 12778.0,10838.0 12764.0,10883.0 C 12749.0,10928.0 12719.0,11010.0 12695.0,11065.0 C 12672.0,11120.0 12641.0,11197.0 12627.0,11236.0 C 12613.0,11276.0 12596.0,11345.0 12590.0,11390.0 L 12579.0,11472.0 L 12592.0,11578.0 L 12582.0,11584.0 C 12576.0,11587.0 12565.0,11587.0 12557.0,11584.0 C 12548.0,11581.0 12525.0,11554.0 12504.0,11524.0 C 12483.0,11494.0 12461.0,11470.0 12454.0,11470.0 L 12441.0,11470.0 L 12412.0,11548.0 C 12395.0,11590.0 12376.0,11645.0 12369.0,11670.0 C 12362.0,11695.0 12352.0,11744.0 12346.0,11779.0 L 12335.0,11843.0 L 12309.0,11852.0 L 12264.0,11806.0 C 12240.0,11781.0 12215.0,11760.0 12209.0,11760.0 L 12198.0,11760.0 L 12204.0,12035.0 L 12188.0,12038.0 C 12180.0,12040.0 12159.0,12029.0 12142.0,12015.0 C 12126.0,12001.0 12109.0,11990.0 12105.0,11990.0 C 12101.0,11990.0 12100.0,12010.0 12104.0,12035.0 C 12107.0,12060.0 12122.0,12110.0 12136.0,12146.0 L 12162.0,12212.0 L 12142.0,12232.0 L 12095.0,12211.0 C 12069.0,12199.0 12044.0,12190.0 12039.0,12190.0 C 12034.0,12190.0 12030.0,12199.0 12030.0,12210.0 C 12030.0,12221.0 12044.0,12264.0 12060.0,12306.0 C 12077.0,12347.0 12106.0,12405.0 12125.0,12433.0 C 12144.0,12462.0 12167.0,12495.0 12175.0,12507.0 L 12191.0,12529.0 L 12148.0,12552.0 L 12086.0,12541.0 C 12051.0,12535.0 12018.0,12530.0 12012.0,12530.0 C 12005.0,12530.0 12000.0,12536.0 12000.0,12543.0 C 12000.0,12550.0 12022.0,12588.0 12050.0,12627.0 C 12077.0,12666.0 12116.0,12712.0 12137.0,12730.0 C 12157.0,12748.0 12201.0,12775.0 12234.0,12791.0 C 12268.0,12807.0 12308.0,12820.0 12323.0,12820.0 M 7078.0,12619.0 C 7101.0,12620.0 7120.0,12616.0 7120.0,12612.0 C 7120.0,12607.0 7069.0,12587.0 7008.0,12566.0 C 6946.0,12546.0 6849.0,12507.0 6792.0,12480.0 C 6735.0,12453.0 6676.0,12421.0 6659.0,12410.0 C 6643.0,12398.0 6632.0,12384.0 6635.0,12379.0 L 6641.0,12370.0 L 6930.0,12370.0 L 6930.0,12360.0 C 6930.0,12354.0 6870.0,12320.0 6798.0,12285.0 C 6725.0,12249.0 6634.0,12198.0 6595.0,12172.0 L 6525.0,12125.0 L 6525.0,12085.0 L 6800.0,12091.0 L 6800.0,12063.0 L 6688.0,12003.0 C 6626.0,11969.0 6538.0,11924.0 6493.0,11901.0 C 6447.0,11878.0 6404.0,11860.0 6395.0,11860.0 C 6387.0,11860.0 6380.0,11863.0 6380.0,11868.0 C 6380.0,11872.0 6394.0,11895.0 6410.0,11920.0 C 6426.0,11945.0 6440.0,11973.0 6440.0,11984.0 L 6440.0,12003.0 L 6394.0,11996.0 C 6368.0,11993.0 6301.0,11977.0 6243.0,11960.0 C 6186.0,11944.0 6133.0,11930.0 6125.0,11930.0 C 6117.0,11930.0 6110.0,11934.0 6110.0,11939.0 C 6110.0,11944.0 6125.0,11961.0 6143.0,11977.0 C 6161.0,11993.0 6231.0,12046.0 6299.0,12094.0 L 6421.0,12182.0 L 6417.0,12193.0 C 6415.0,12200.0 6402.0,12205.0 6389.0,12204.0 C 6376.0,12204.0 6326.0,12200.0 6278.0,12196.0 L 6190.0,12188.0 L 6190.0,12197.0 C 6190.0,12203.0 6241.0,12240.0 6304.0,12281.0 C 6366.0,12322.0 6439.0,12368.0 6465.0,12383.0 L 6512.0,12411.0 L 6488.0,12440.0 L 6380.0,12440.0 L 6380.0,12469.0 L 6488.0,12504.0 C 6547.0,12523.0 6640.0,12548.0 6695.0,12560.0 C 6750.0,12572.0 6849.0,12590.0 6915.0,12600.0 C 6981.0,12610.0 7054.0,12619.0 7078.0,12619.0 M 7784.0,12117.0 C 7790.0,12115.0 7795.0,12110.0 7797.0,12104.0 C 7798.0,12099.0 7765.0,12034.0 7722.0,11960.0 L 7644.0,11825.0 L 7590.0,11796.0 C 7560.0,11781.0 7499.0,11748.0 7456.0,11723.0 C 7412.0,11698.0 7346.0,11656.0 7309.0,11629.0 C 7272.0,11602.0 7235.0,11580.0 7227.0,11580.0 L 7211.0,11580.0 L 7194.0,11665.0 L 7163.0,11671.0 L 7050.0,11550.0 C 6987.0,11484.0 6901.0,11403.0 6858.0,11369.0 C 6815.0,11336.0 6776.0,11312.0 6770.0,11315.0 C 6765.0,11318.0 6760.0,11334.0 6760.0,11349.0 C 6760.0,11364.0 6755.0,11381.0 6748.0,11388.0 C 6741.0,11395.0 6731.0,11400.0 6724.0,11400.0 C 6718.0,11400.0 6685.0,11375.0 6651.0,11345.0 C 6618.0,11316.0 6563.0,11272.0 6529.0,11249.0 C 6495.0,11226.0 6424.0,11187.0 6372.0,11163.0 L 6277.0,11119.0 L 6257.0,11139.0 L 6281.0,11233.0 L 6255.0,11259.0 L 6160.0,11211.0 C 6108.0,11184.0 6029.0,11151.0 5984.0,11137.0 C 5939.0,11123.0 5856.0,11105.0 5799.0,11096.0 C 5742.0,11088.0 5637.0,11078.0 5565.0,11075.0 L 5435.0,11068.0 L 5290.0,11080.0 C 5210.0,11086.0 5093.0,11102.0 5030.0,11113.0 L 4915.0,11135.0 L 4912.0,11151.0 C 4911.0,11159.0 4933.0,11204.0 4963.0,11250.0 L 5083.0,11440.0 C 5119.0,11498.0 5174.0,11575.0 5204.0,11612.0 C 5235.0,11649.0 5295.0,11709.0 5337.0,11746.0 C 5380.0,11783.0 5451.0,11836.0 5495.0,11865.0 C 5539.0,11894.0 5598.0,11929.0 5627.0,11944.0 C 5656.0,11958.0 5682.0,11970.0 5685.0,11970.0 C 5688.0,11970.0 5690.0,11966.0 5690.0,11960.0 C 5690.0,11955.0 5660.0,11911.0 5624.0,11863.0 C 5587.0,11814.0 5548.0,11756.0 5537.0,11732.0 L 5516.0,11690.0 L 5539.0,11667.0 L 5587.0,11687.0 C 5613.0,11699.0 5660.0,11715.0 5692.0,11724.0 C 5723.0,11733.0 5755.0,11740.0 5764.0,11740.0 C 5773.0,11740.0 5780.0,11736.0 5780.0,11730.0 C 5780.0,11725.0 5739.0,11670.0 5689.0,11608.0 C 5639.0,11546.0 5590.0,11481.0 5582.0,11463.0 L 5566.0,11430.0 L 5576.0,11421.0 L 5585.0,11411.0 L 5665.0,11430.0 C 5709.0,11441.0 5755.0,11449.0 5768.0,11450.0 C 5780.0,11450.0 5790.0,11445.0 5790.0,11439.0 C 5790.0,11434.0 5762.0,11392.0 5728.0,11348.0 C 5693.0,11304.0 5657.0,11256.0 5646.0,11243.0 L 5627.0,11219.0 L 5645.0,11201.0 L 5713.0,11216.0 C 5751.0,11224.0 5816.0,11242.0 5858.0,11256.0 C 5900.0,11270.0 5982.0,11304.0 6039.0,11331.0 C 6096.0,11358.0 6180.0,11405.0 6224.0,11434.0 C 6269.0,11464.0 6332.0,11516.0 6365.0,11549.0 C 6398.0,11583.0 6428.0,11610.0 6432.0,11610.0 C 6436.0,11610.0 6440.0,11599.0 6440.0,11586.0 C 6440.0,11573.0 6431.0,11532.0 6419.0,11495.0 L 6398.0,11428.0 L 6422.0,11405.0 L 6596.0,11585.0 C 6691.0,11683.0 6772.0,11761.0 6775.0,11758.0 C 6778.0,11755.0 6771.0,11718.0 6759.0,11677.0 C 6747.0,11635.0 6740.0,11594.0 6743.0,11586.0 C 6747.0,11577.0 6754.0,11570.0 6759.0,11570.0 C 6764.0,11570.0 6804.0,11612.0 6849.0,11663.0 C 6893.0,11713.0 6965.0,11793.0 7008.0,11840.0 C 7052.0,11887.0 7091.0,11922.0 7096.0,11918.0 C 7100.0,11914.0 7093.0,11878.0 7082.0,11838.0 L 7060.0,11766.0 L 7078.0,11748.0 L 7166.0,11830.0 C 7215.0,11875.0 7297.0,11943.0 7348.0,11982.0 C 7399.0,12021.0 7443.0,12050.0 7447.0,12046.0 C 7451.0,12042.0 7444.0,12011.0 7432.0,11977.0 C 7420.0,11943.0 7410.0,11907.0 7410.0,11898.0 C 7410.0,11888.0 7415.0,11880.0 7420.0,11880.0 C 7426.0,11880.0 7477.0,11915.0 7533.0,11957.0 C 7589.0,11999.0 7666.0,12053.0 7705.0,12077.0 C 7743.0,12100.0 7779.0,12118.0 7784.0,12117.0 M 8144.0,12067.0 C 8150.0,12065.0 8155.0,12060.0 8157.0,12054.0 C 8159.0,12049.0 8113.0,11984.0 8055.0,11910.0 C 7998.0,11836.0 7936.0,11749.0 7919.0,11717.0 L 7888.0,11658.0 L 7905.0,11641.0 L 7954.0,11655.0 C 7981.0,11663.0 8009.0,11670.0 8017.0,11670.0 C 8024.0,11670.0 8030.0,11664.0 8030.0,11657.0 C 8030.0,11651.0 8006.0,11618.0 7978.0,11585.0 C 7949.0,11551.0 7902.0,11493.0 7873.0,11454.0 C 7844.0,11415.0 7816.0,11372.0 7811.0,11357.0 L 7800.0,11329.0 L 7813.0,11324.0 C 7821.0,11321.0 7855.0,11333.0 7891.0,11350.0 C 7926.0,11366.0 7965.0,11380.0 7978.0,11380.0 C 7990.0,11380.0 8000.0,11378.0 8000.0,11376.0 C 8000.0,11374.0 7975.0,11332.0 7944.0,11284.0 C 7914.0,11235.0 7876.0,11168.0 7860.0,11135.0 C 7844.0,11102.0 7828.0,11063.0 7824.0,11048.0 L 7818.0,11020.0 L 7835.0,11020.0 C 7844.0,11020.0 7870.0,11033.0 7893.0,11049.0 C 7916.0,11064.0 7950.0,11085.0 7969.0,11094.0 L 8002.0,11112.0 L 8019.0,11095.0 L 7973.0,11006.0 C 7948.0,10957.0 7917.0,10890.0 7904.0,10857.0 C 7891.0,10823.0 7880.0,10786.0 7880.0,10773.0 C 7880.0,10760.0 7885.0,10750.0 7891.0,10750.0 C 7897.0,10750.0 7947.0,10775.0 8002.0,10806.0 L 8103.0,10861.0 L 8124.0,10840.0 L 8106.0,10783.0 C 8096.0,10751.0 8074.0,10698.0 8057.0,10665.0 C 8041.0,10632.0 8000.0,10563.0 7967.0,10512.0 L 7906.0,10419.0 L 7875.0,10425.0 L 7869.0,10516.0 C 7866.0,10565.0 7860.0,10612.0 7856.0,10618.0 C 7852.0,10625.0 7840.0,10630.0 7830.0,10630.0 L 7811.0,10630.0 L 7780.0,10593.0 C 7763.0,10572.0 7731.0,10519.0 7710.0,10475.0 C 7688.0,10431.0 7655.0,10339.0 7635.0,10270.0 C 7615.0,10201.0 7579.0,10082.0 7554.0,10006.0 L 7509.0,9867.0 L 7538.0,9838.0 L 7915.0,9837.0 L 7995.0,9849.0 C 8039.0,9856.0 8111.0,9870.0 8155.0,9881.0 C 8199.0,9891.0 8287.0,9920.0 8350.0,9945.0 C 8413.0,9970.0 8504.0,10011.0 8553.0,10038.0 C 8601.0,10064.0 8681.0,10114.0 8732.0,10150.0 C 8783.0,10186.0 8867.0,10258.0 8920.0,10310.0 C 8973.0,10362.0 9046.0,10446.0 9083.0,10495.0 C 9120.0,10545.0 9177.0,10637.0 9209.0,10700.0 C 9241.0,10763.0 9282.0,10856.0 9298.0,10905.0 C 9315.0,10955.0 9336.0,11036.0 9344.0,11085.0 L 9360.0,11175.0 L 9360.0,11310.0 C 9360.0,11384.0 9355.0,11477.0 9350.0,11515.0 C 9345.0,11554.0 9330.0,11629.0 9319.0,11683.0 C 9307.0,11736.0 9300.0,11783.0 9304.0,11788.0 C 9308.0,11792.0 9327.0,11777.0 9345.0,11755.0 C 9364.0,11733.0 9399.0,11681.0 9423.0,11640.0 C 9447.0,11599.0 9476.0,11540.0 9488.0,11510.0 C 9500.0,11480.0 9514.0,11435.0 9521.0,11410.0 C 9528.0,11385.0 9533.0,11313.0 9533.0,11250.0 L 9534.0,11135.0 L 9512.0,11058.0 C 9500.0,11015.0 9460.0,10916.0 9422.0,10838.0 C 9384.0,10759.0 9328.0,10654.0 9296.0,10603.0 C 9265.0,10552.0 9212.0,10474.0 9178.0,10428.0 C 9144.0,10383.0 9074.0,10301.0 9021.0,10247.0 C 8968.0,10192.0 8891.0,10120.0 8850.0,10087.0 C 8809.0,10054.0 8735.0,10000.0 8685.0,9968.0 C 8636.0,9936.0 8539.0,9881.0 8470.0,9846.0 C 8401.0,9811.0 8282.0,9758.0 8205.0,9727.0 C 8128.0,9697.0 7989.0,9642.0 7895.0,9605.0 C 7802.0,9568.0 7700.0,9524.0 7670.0,9508.0 C 7640.0,9491.0 7589.0,9457.0 7557.0,9433.0 C 7525.0,9408.0 7482.0,9365.0 7461.0,9337.0 C 7440.0,9308.0 7403.0,9247.0 7380.0,9202.0 C 7358.0,9156.0 7324.0,9072.0 7305.0,9017.0 C 7287.0,8961.0 7264.0,8880.0 7256.0,8838.0 C 7247.0,8796.0 7240.0,8746.0 7240.0,8727.0 C 7240.0,8708.0 7246.0,8673.0 7254.0,8647.0 C 7261.0,8622.0 7288.0,8575.0 7313.0,8543.0 C 7338.0,8511.0 7365.0,8471.0 7374.0,8454.0 C 7382.0,8436.0 7392.0,8405.0 7395.0,8384.0 L 7401.0,8345.0 L 7373.0,8307.0 L 7165.0,8307.0 L 7125.0,8324.0 C 7103.0,8333.0 7070.0,8355.0 7052.0,8373.0 C 7033.0,8391.0 7009.0,8423.0 6997.0,8445.0 L 6977.0,8485.0 L 6968.0,8645.0 L 6989.0,8750.0 C 7000.0,8808.0 7020.0,8907.0 7034.0,8970.0 C 7048.0,9033.0 7077.0,9191.0 7100.0,9320.0 C 7122.0,9449.0 7145.0,9574.0 7152.0,9598.0 L 7163.0,9640.0 L 7204.0,9682.0 C 7226.0,9706.0 7277.0,9761.0 7315.0,9806.0 C 7354.0,9851.0 7400.0,9913.0 7419.0,9945.0 C 7438.0,9976.0 7468.0,10042.0 7487.0,10091.0 C 7506.0,10140.0 7532.0,10222.0 7545.0,10273.0 C 7559.0,10324.0 7584.0,10456.0 7600.0,10565.0 C 7617.0,10674.0 7630.0,10770.0 7630.0,10778.0 L 7630.0,10792.0 L 7608.0,10786.0 C 7595.0,10782.0 7573.0,10777.0 7558.0,10774.0 L 7530.0,10768.0 L 7530.0,10795.0 C 7530.0,10809.0 7539.0,10857.0 7550.0,10899.0 C 7561.0,10942.0 7586.0,11024.0 7606.0,11081.0 L 7642.0,11184.0 L 7624.0,11197.0 C 7614.0,11204.0 7597.0,11210.0 7587.0,11210.0 L 7568.0,11210.0 L 7574.0,11242.0 C 7577.0,11259.0 7626.0,11368.0 7681.0,11484.0 C 7737.0,11600.0 7804.0,11741.0 7831.0,11796.0 L 7879.0,11897.0 L 7928.0,11941.0 C 7955.0,11965.0 8013.0,12004.0 8056.0,12027.0 C 8099.0,12051.0 8139.0,12068.0 8144.0,12067.0 M 7516.0,11560.0 C 7524.0,11560.0 7530.0,11558.0 7530.0,11556.0 C 7530.0,11554.0 7508.0,11506.0 7481.0,11449.0 C 7454.0,11392.0 7416.0,11301.0 7396.0,11247.0 C 7376.0,11194.0 7357.0,11129.0 7353.0,11104.0 L 7347.0,11058.0 L 7405.0,11011.0 L 7374.0,10979.0 L 7150.0,10990.0 C 7028.0,10996.0 6818.0,11002.0 6684.0,11003.0 C 6550.0,11004.0 6440.0,11007.0 6440.0,11010.0 C 6440.0,11013.0 6482.0,11036.0 6533.0,11063.0 C 6583.0,11089.0 6630.0,11110.0 6636.0,11110.0 C 6642.0,11110.0 6653.0,11103.0 6660.0,11095.0 L 6672.0,11080.0 L 6746.0,11080.0 L 6853.0,11153.0 C 6911.0,11192.0 6991.0,11254.0 7031.0,11289.0 L 7102.0,11353.0 L 7130.0,11337.0 C 7145.0,11327.0 7167.0,11320.0 7179.0,11320.0 C 7190.0,11320.0 7226.0,11342.0 7259.0,11370.0 C 7292.0,11397.0 7360.0,11451.0 7411.0,11490.0 C 7461.0,11528.0 7509.0,11560.0 7516.0,11560.0 M 12451.0,11080.0 C 12455.0,11080.0 12474.0,11059.0 12493.0,11033.0 C 12512.0,11006.0 12539.0,10962.0 12554.0,10933.0 C 12568.0,10905.0 12592.0,10842.0 12606.0,10793.0 L 12632.0,10705.0 L 12643.0,10470.0 L 12630.0,10393.0 C 12624.0,10350.0 12604.0,10272.0 12588.0,10220.0 C 12571.0,10168.0 12543.0,10094.0 12524.0,10055.0 C 12506.0,10017.0 12460.0,9940.0 12423.0,9885.0 C 12385.0,9830.0 12346.0,9784.0 12337.0,9782.0 L 12320.0,9779.0 L 12320.0,9800.0 C 12320.0,9812.0 12337.0,9861.0 12359.0,9909.0 C 12380.0,9956.0 12416.0,10051.0 12438.0,10120.0 C 12460.0,10189.0 12486.0,10286.0 12495.0,10335.0 L 12512.0,10425.0 L 12502.0,10745.0 L 12472.0,10870.0 C 12456.0,10939.0 12440.0,11011.0 12437.0,11032.0 C 12434.0,11052.0 12434.0,11071.0 12437.0,11074.0 C 12441.0,11077.0 12447.0,11080.0 12451.0,11080.0 M 9925.0,10895.0 C 9980.0,10892.0 10035.0,10887.0 10048.0,10884.0 L 10072.0,10877.0 L 10065.0,10856.0 C 10062.0,10845.0 10058.0,10829.0 10057.0,10821.0 L 10055.0,10808.0 L 10105.0,10793.0 C 10133.0,10785.0 10190.0,10765.0 10233.0,10748.0 C 10275.0,10731.0 10313.0,10713.0 10317.0,10707.0 C 10320.0,10702.0 10311.0,10688.0 10297.0,10678.0 C 10282.0,10667.0 10270.0,10652.0 10270.0,10644.0 L 10270.0,10629.0 L 10333.0,10601.0 C 10367.0,10585.0 10447.0,10553.0 10510.0,10530.0 C 10573.0,10506.0 10629.0,10483.0 10634.0,10478.0 L 10644.0,10470.0 L 10589.0,10413.0 L 10604.0,10401.0 C 10612.0,10394.0 10661.0,10380.0 10712.0,10369.0 C 10763.0,10359.0 10839.0,10350.0 10880.0,10350.0 C 10921.0,10350.0 10983.0,10357.0 11018.0,10365.0 C 11053.0,10373.0 11086.0,10377.0 11091.0,10374.0 C 11097.0,10371.0 11100.0,10356.0 11098.0,10342.0 L 11095.0,10315.0 L 11128.0,10318.0 C 11147.0,10319.0 11185.0,10331.0 11214.0,10345.0 C 11243.0,10359.0 11276.0,10380.0 11289.0,10394.0 L 11311.0,10417.0 L 11335.0,10511.0 C 11347.0,10563.0 11368.0,10627.0 11379.0,10654.0 C 11391.0,10681.0 11421.0,10733.0 11445.0,10769.0 C 11469.0,10805.0 11502.0,10848.0 11519.0,10864.0 C 11536.0,10880.0 11552.0,10891.0 11555.0,10888.0 C 11558.0,10885.0 11542.0,10818.0 11519.0,10739.0 L 11477.0,10595.0 L 11476.0,10305.0 L 11502.0,10235.0 C 11516.0,10197.0 11545.0,10127.0 11566.0,10080.0 L 11604.0,9995.0 L 11611.0,9740.0 C 11615.0,9600.0 11623.0,9461.0 11629.0,9432.0 C 11635.0,9403.0 11644.0,9371.0 11650.0,9361.0 C 11655.0,9351.0 11674.0,9337.0 11691.0,9331.0 C 11709.0,9325.0 11735.0,9320.0 11750.0,9320.0 C 11765.0,9320.0 11817.0,9327.0 11866.0,9335.0 L 11955.0,9350.0 L 12038.0,9391.0 C 12084.0,9413.0 12123.0,9430.0 12125.0,9428.0 C 12127.0,9427.0 12115.0,9375.0 12099.0,9313.0 C 12084.0,9251.0 12055.0,9123.0 12036.0,9027.0 C 12017.0,8931.0 11991.0,8784.0 11978.0,8699.0 L 11956.0,8545.0 L 11955.0,8005.0 L 11969.0,7950.0 C 11976.0,7920.0 11993.0,7875.0 12005.0,7850.0 C 12018.0,7825.0 12041.0,7793.0 12057.0,7779.0 C 12072.0,7764.0 12122.0,7733.0 12168.0,7710.0 L 12251.0,7667.0 L 12275.0,7636.0 C 12289.0,7618.0 12306.0,7587.0 12315.0,7567.0 C 12323.0,7547.0 12330.0,7517.0 12330.0,7500.0 L 12330.0,7469.0 L 12255.0,7437.0 L 12100.0,7436.0 C 12015.0,7436.0 11933.0,7438.0 11917.0,7443.0 L 11890.0,7450.0 L 11829.0,7532.0 C 11796.0,7576.0 11745.0,7654.0 11715.0,7704.0 L 11661.0,7795.0 L 11641.0,7875.0 C 11630.0,7919.0 11610.0,8018.0 11596.0,8095.0 C 11582.0,8172.0 11566.0,8264.0 11561.0,8300.0 C 11555.0,8336.0 11544.0,8455.0 11536.0,8565.0 C 11527.0,8675.0 11516.0,8860.0 11510.0,8975.0 C 11505.0,9091.0 11493.0,9334.0 11485.0,9515.0 L 11469.0,9845.0 L 11455.0,9920.0 C 11447.0,9961.0 11427.0,10023.0 11410.0,10056.0 L 11380.0,10118.0 L 11340.0,10154.0 C 11318.0,10174.0 11293.0,10190.0 11286.0,10190.0 C 11278.0,10190.0 11269.0,10187.0 11267.0,10183.0 C 11264.0,10178.0 11269.0,10132.0 11276.0,10080.0 C 11283.0,10028.0 11290.0,9945.0 11292.0,9895.0 L 11295.0,9805.0 L 11237.0,9802.0 C 11206.0,9800.0 11140.0,9806.0 11092.0,9814.0 C 11044.0,9823.0 10981.0,9836.0 10953.0,9845.0 L 10900.0,9861.0 L 10905.0,9954.0 L 10795.0,9976.0 C 10735.0,9988.0 10656.0,10008.0 10621.0,10020.0 C 10585.0,10032.0 10540.0,10050.0 10519.0,10061.0 C 10498.0,10071.0 10479.0,10084.0 10476.0,10089.0 C 10472.0,10094.0 10475.0,10110.0 10482.0,10125.0 L 10493.0,10151.0 L 10483.0,10161.0 C 10477.0,10167.0 10426.0,10187.0 10369.0,10207.0 C 10312.0,10226.0 10261.0,10246.0 10256.0,10250.0 L 10248.0,10258.0 L 10265.0,10288.0 C 10275.0,10304.0 10280.0,10325.0 10277.0,10333.0 C 10274.0,10341.0 10256.0,10351.0 10238.0,10355.0 C 10220.0,10359.0 10167.0,10375.0 10121.0,10391.0 C 10074.0,10407.0 10032.0,10424.0 10026.0,10430.0 L 10016.0,10440.0 L 10039.0,10464.0 C 10052.0,10478.0 10060.0,10495.0 10057.0,10503.0 C 10054.0,10510.0 10024.0,10524.0 9991.0,10533.0 C 9957.0,10543.0 9876.0,10572.0 9812.0,10599.0 C 9748.0,10626.0 9660.0,10656.0 9618.0,10666.0 L 9540.0,10684.0 L 9540.0,10698.0 C 9540.0,10705.0 9554.0,10731.0 9570.0,10755.0 C 9587.0,10780.0 9620.0,10812.0 9643.0,10828.0 C 9666.0,10844.0 9705.0,10864.0 9730.0,10873.0 C 9755.0,10882.0 9786.0,10891.0 9800.0,10894.0 C 9814.0,10897.0 9870.0,10897.0 9925.0,10895.0 M 6030.0,10734.0 C 6346.0,10732.0 6738.0,10725.0 6900.0,10719.0 C 7062.0,10713.0 7229.0,10705.0 7270.0,10702.0 L 7345.0,10695.0 L 7342.0,10632.0 C 7340.0,10597.0 7341.0,10557.0 7344.0,10544.0 L 7350.0,10520.0 L 7421.0,10491.0 L 7414.0,10453.0 C 7411.0,10432.0 7399.0,10380.0 7389.0,10336.0 C 7378.0,10293.0 7358.0,10229.0 7345.0,10193.0 C 7331.0,10158.0 7303.0,10096.0 7283.0,10057.0 L 7245.0,9985.0 L 7030.0,9763.0 L 7011.0,9719.0 C 7000.0,9694.0 6988.0,9655.0 6984.0,9632.0 C 6981.0,9609.0 6972.0,9585.0 6964.0,9580.0 L 6951.0,9569.0 L 6813.0,9589.0 C 6737.0,9600.0 6587.0,9623.0 6480.0,9640.0 C 6373.0,9657.0 6193.0,9684.0 6080.0,9701.0 C 5967.0,9717.0 5616.0,9771.0 5300.0,9821.0 C 4984.0,9870.0 4655.0,9922.0 4570.0,9935.0 C 4485.0,9949.0 4129.0,10003.0 3780.0,10055.0 C 3431.0,10107.0 3047.0,10166.0 2927.0,10185.0 C 2807.0,10204.0 2705.0,10222.0 2699.0,10225.0 L 2689.0,10232.0 L 2696.0,10268.0 C 2700.0,10288.0 2716.0,10334.0 2732.0,10370.0 C 2748.0,10406.0 2778.0,10452.0 2798.0,10473.0 C 2818.0,10494.0 2855.0,10522.0 2880.0,10535.0 C 2905.0,10547.0 2955.0,10567.0 2993.0,10579.0 C 3030.0,10590.0 3100.0,10606.0 3148.0,10614.0 C 3196.0,10622.0 3298.0,10636.0 3375.0,10644.0 C 3452.0,10653.0 3623.0,10666.0 3755.0,10674.0 C 3887.0,10683.0 4090.0,10694.0 4205.0,10699.0 C 4321.0,10705.0 4570.0,10715.0 4760.0,10720.0 C 4950.0,10726.0 5184.0,10732.0 5280.0,10734.0 C 5376.0,10736.0 5714.0,10736.0 6030.0,10734.0 M 9513.0,10515.0 C 9547.0,10512.0 9598.0,10502.0 9625.0,10493.0 C 9653.0,10484.0 9696.0,10467.0 9722.0,10454.0 C 9748.0,10441.0 9772.0,10426.0 9775.0,10420.0 L 9782.0,10409.0 L 9723.0,10338.0 C 9691.0,10299.0 9634.0,10240.0 9595.0,10208.0 C 9557.0,10175.0 9484.0,10124.0 9434.0,10094.0 C 9384.0,10064.0 9285.0,10015.0 9214.0,9985.0 C 9143.0,9955.0 9031.0,9903.0 8965.0,9870.0 C 8899.0,9838.0 8819.0,9790.0 8787.0,9765.0 C 8755.0,9739.0 8715.0,9698.0 8699.0,9672.0 C 8683.0,9646.0 8662.0,9603.0 8654.0,9575.0 C 8646.0,9548.0 8636.0,9485.0 8633.0,9435.0 L 8628.0,9345.0 L 8643.0,9258.0 C 8651.0,9210.0 8667.0,9153.0 8677.0,9133.0 L 8695.0,9095.0 L 8760.0,9053.0 C 8796.0,9030.0 8844.0,8990.0 8868.0,8964.0 L 8910.0,8918.0 L 8910.0,8862.0 L 8894.0,8856.0 C 8885.0,8853.0 8817.0,8850.0 8742.0,8850.0 C 8667.0,8850.0 8588.0,8855.0 8567.0,8861.0 C 8546.0,8867.0 8511.0,8887.0 8490.0,8906.0 L 8451.0,8942.0 L 8432.0,8993.0 C 8421.0,9022.0 8398.0,9113.0 8380.0,9195.0 C 8363.0,9278.0 8337.0,9390.0 8324.0,9445.0 C 8311.0,9500.0 8300.0,9552.0 8300.0,9561.0 L 8300.0,9577.0 L 8368.0,9605.0 C 8405.0,9621.0 8473.0,9652.0 8520.0,9676.0 C 8567.0,9699.0 8653.0,9748.0 8713.0,9784.0 C 8772.0,9820.0 8855.0,9875.0 8898.0,9907.0 C 8940.0,9939.0 9028.0,10016.0 9094.0,10080.0 C 9159.0,10143.0 9242.0,10233.0 9279.0,10280.0 C 9317.0,10327.0 9370.0,10400.0 9399.0,10443.0 L 9452.0,10522.0 L 9513.0,10515.0 M 9929.0,10287.0 C 9943.0,10284.0 9972.0,10274.0 9993.0,10266.0 L 10030.0,10250.0 L 10030.0,10190.0 L 10068.0,10167.0 C 10088.0,10154.0 10138.0,10126.0 10178.0,10105.0 L 10250.0,10067.0 L 10250.0,10049.0 C 10250.0,10039.0 10267.0,10018.0 10287.0,10001.0 C 10307.0,9984.0 10379.0,9946.0 10447.0,9915.0 C 10515.0,9884.0 10584.0,9857.0 10601.0,9853.0 L 10631.0,9847.0 L 10658.0,9781.0 L 10689.0,9766.0 C 10706.0,9757.0 10757.0,9735.0 10803.0,9716.0 C 10850.0,9697.0 10930.0,9672.0 10981.0,9660.0 C 11033.0,9648.0 11127.0,9633.0 11190.0,9627.0 L 11305.0,9615.0 L 11311.0,9524.0 C 11315.0,9473.0 11323.0,9303.0 11330.0,9146.0 C 11337.0,8988.0 11340.0,8856.0 11336.0,8853.0 C 11332.0,8849.0 11095.0,8885.0 10807.0,8933.0 C 10520.0,8981.0 10038.0,9060.0 9735.0,9110.0 C 9433.0,9159.0 9105.0,9213.0 9006.0,9229.0 C 8908.0,9245.0 8823.0,9263.0 8818.0,9268.0 C 8812.0,9274.0 8805.0,9321.0 8802.0,9373.0 L 8797.0,9467.0 L 8822.0,9541.0 L 8926.0,9648.0 L 9091.0,9728.0 C 9181.0,9772.0 9312.0,9835.0 9382.0,9868.0 C 9453.0,9902.0 9547.0,9954.0 9592.0,9984.0 L 9675.0,10038.0 L 9771.0,10137.0 C 9823.0,10191.0 9875.0,10248.0 9885.0,10264.0 L 9903.0,10292.0 L 9929.0,10287.0 M 2619.0,10040.0 C 2628.0,10040.0 2739.0,10024.0 2865.0,10006.0 C 2992.0,9987.0 3230.0,9950.0 3395.0,9925.0 C 3560.0,9900.0 3801.0,9864.0 3930.0,9844.0 C 4059.0,9825.0 4350.0,9781.0 4575.0,9745.0 C 4801.0,9710.0 5190.0,9649.0 5440.0,9611.0 L 6408.0,9461.0 C 6691.0,9418.0 6926.0,9378.0 6931.0,9373.0 L 6939.0,9365.0 L 6884.0,9110.0 C 6854.0,8970.0 6827.0,8843.0 6823.0,8828.0 L 6818.0,8800.0 L 6797.0,8800.0 C 6786.0,8800.0 6623.0,8827.0 6436.0,8860.0 C 6248.0,8893.0 5951.0,8948.0 5775.0,8981.0 C 5599.0,9014.0 5336.0,9064.0 5190.0,9091.0 C 5044.0,9119.0 4795.0,9166.0 4635.0,9196.0 C 4476.0,9226.0 4008.0,9318.0 3595.0,9400.0 C 3183.0,9482.0 2787.0,9560.0 2715.0,9574.0 C 2644.0,9588.0 2529.0,9611.0 2460.0,9625.0 C 2391.0,9640.0 2331.0,9655.0 2326.0,9660.0 L 2317.0,9669.0 L 2340.0,9707.0 C 2353.0,9728.0 2386.0,9774.0 2413.0,9810.0 C 2441.0,9846.0 2494.0,9912.0 2533.0,9958.0 L 2602.0,10040.0 L 2619.0,10040.0 M 13149.0,10020.0 L 13162.0,10020.0 L 13157.0,9998.0 C 13153.0,9985.0 13140.0,9896.0 13126.0,9800.0 C 13112.0,9704.0 13093.0,9546.0 13084.0,9450.0 L 13066.0,9275.0 L 13066.0,8705.0 L 13084.0,8607.0 C 13094.0,8553.0 13113.0,8477.0 13126.0,8438.0 C 13139.0,8399.0 13161.0,8349.0 13174.0,8326.0 C 13187.0,8303.0 13213.0,8271.0 13232.0,8253.0 C 13250.0,8235.0 13298.0,8207.0 13338.0,8191.0 C 13378.0,8174.0 13431.0,8146.0 13456.0,8128.0 C 13481.0,8110.0 13512.0,8077.0 13525.0,8055.0 C 13537.0,8033.0 13551.0,8003.0 13554.0,7987.0 L 13560.0,7960.0 L 13505.0,7936.0 L 13145.0,7935.0 L 13051.0,7982.0 L 12982.0,8068.0 C 12944.0,8116.0 12901.0,8172.0 12887.0,8192.0 L 12862.0,8229.0 L 12821.0,8397.0 C 12799.0,8490.0 12751.0,8712.0 12716.0,8891.0 C 12680.0,9070.0 12628.0,9313.0 12601.0,9431.0 C 12573.0,9548.0 12550.0,9652.0 12550.0,9662.0 L 12550.0,9679.0 L 12593.0,9709.0 C 12616.0,9725.0 12712.0,9778.0 12806.0,9827.0 C 12899.0,9876.0 13011.0,9939.0 13055.0,9968.0 C 13099.0,9996.0 13141.0,10020.0 13149.0,10020.0 M 13338.0,9926.0 C 13348.0,9923.0 13409.0,9907.0 13475.0,9891.0 C 13541.0,9874.0 13654.0,9846.0 13725.0,9827.0 C 13797.0,9808.0 13932.0,9771.0 14025.0,9745.0 C 14119.0,9719.0 14294.0,9670.0 14415.0,9635.0 C 14536.0,9600.0 14788.0,9521.0 14975.0,9459.0 C 15162.0,9398.0 15437.0,9303.0 15585.0,9248.0 C 15734.0,9193.0 15947.0,9112.0 16060.0,9068.0 C 16173.0,9024.0 16342.0,8956.0 16435.0,8918.0 C 16529.0,8879.0 16727.0,8791.0 16875.0,8723.0 C 17024.0,8655.0 17237.0,8551.0 17350.0,8493.0 C 17463.0,8435.0 17616.0,8353.0 17690.0,8312.0 C 17764.0,8271.0 17895.0,8195.0 17980.0,8144.0 C 18065.0,8094.0 18199.0,8009.0 18278.0,7956.0 C 18356.0,7903.0 18466.0,7825.0 18523.0,7784.0 C 18579.0,7742.0 18627.0,7704.0 18628.0,7699.0 C 18630.0,7694.0 18627.0,7690.0 18621.0,7690.0 C 18615.0,7690.0 18512.0,7701.0 18392.0,7715.0 C 18273.0,7729.0 18013.0,7761.0 17815.0,7786.0 C 17617.0,7811.0 17194.0,7869.0 16875.0,7915.0 C 16556.0,7961.0 16205.0,8013.0 16095.0,8030.0 C 15985.0,8047.0 15780.0,8079.0 15640.0,8101.0 C 15500.0,8123.0 15180.0,8174.0 14930.0,8216.0 C 14680.0,8257.0 14266.0,8327.0 14010.0,8371.0 C 13754.0,8415.0 13489.0,8462.0 13421.0,8474.0 L 13296.0,8498.0 L 13284.0,8514.0 C 13278.0,8523.0 13265.0,8579.0 13256.0,8638.0 C 13248.0,8697.0 13238.0,8806.0 13234.0,8880.0 L 13239.0,9225.0 C 13245.0,9341.0 13257.0,9494.0 13265.0,9565.0 C 13273.0,9637.0 13286.0,9744.0 13294.0,9803.0 C 13303.0,9863.0 13312.0,9916.0 13316.0,9921.0 C 13319.0,9926.0 13329.0,9929.0 13338.0,9926.0 M 12388.0,9518.0 L 12404.0,9515.0 L 12426.0,9415.0 C 12438.0,9360.0 12464.0,9241.0 12485.0,9150.0 C 12505.0,9059.0 12537.0,8906.0 12555.0,8810.0 C 12574.0,8714.0 12586.0,8632.0 12582.0,8628.0 C 12578.0,8625.0 12485.0,8637.0 12375.0,8656.0 C 12265.0,8676.0 12171.0,8696.0 12165.0,8701.0 L 12156.0,8710.0 L 12179.0,8853.0 C 12192.0,8931.0 12218.0,9060.0 12237.0,9140.0 C 12255.0,9220.0 12282.0,9323.0 12296.0,9370.0 C 12310.0,9417.0 12333.0,9470.0 12347.0,9488.0 L 12372.0,9521.0 L 12388.0,9518.0 M 2284.0,9475.0 C 2296.0,9472.0 2411.0,9448.0 2540.0,9421.0 C 2669.0,9394.0 3014.0,9324.0 3305.0,9266.0 C 3597.0,9209.0 3975.0,9134.0 4145.0,9101.0 C 4316.0,9068.0 4610.0,9011.0 4800.0,8974.0 C 4990.0,8938.0 5300.0,8879.0 5490.0,8844.0 L 6270.0,8700.0 C 6509.0,8657.0 6723.0,8617.0 6745.0,8613.0 L 6784.0,8604.0 L 6796.0,8525.0 C 6802.0,8481.0 6817.0,8419.0 6830.0,8387.0 C 6842.0,8356.0 6869.0,8307.0 6892.0,8279.0 C 6914.0,8251.0 6952.0,8216.0 6977.0,8200.0 C 7002.0,8184.0 7044.0,8164.0 7069.0,8156.0 C 7094.0,8147.0 7149.0,8136.0 7190.0,8130.0 L 7265.0,8119.0 L 7330.0,8126.0 C 7366.0,8130.0 7413.0,8139.0 7435.0,8147.0 C 7457.0,8155.0 7489.0,8175.0 7507.0,8192.0 L 7540.0,8223.0 L 7573.0,8323.0 L 7562.0,8470.0 L 7578.0,8470.0 C 7587.0,8470.0 7673.0,8456.0 7770.0,8440.0 C 7866.0,8423.0 8112.0,8383.0 8315.0,8350.0 L 9360.0,8186.0 C 9731.0,8129.0 10217.0,8054.0 10440.0,8020.0 C 10663.0,7987.0 10919.0,7948.0 11010.0,7934.0 C 11101.0,7921.0 11234.0,7900.0 11305.0,7889.0 L 11435.0,7868.0 L 11451.0,7852.0 C 11459.0,7842.0 11475.0,7808.0 11484.0,7775.0 C 11494.0,7742.0 11511.0,7697.0 11522.0,7675.0 C 11534.0,7653.0 11569.0,7592.0 11601.0,7540.0 C 11633.0,7488.0 11684.0,7415.0 11715.0,7378.0 L 11770.0,7312.0 L 11858.0,7269.0 L 12051.0,7248.0 L 12173.0,7259.0 C 12240.0,7264.0 12319.0,7276.0 12348.0,7285.0 L 12400.0,7301.0 L 12437.0,7333.0 C 12457.0,7350.0 12479.0,7379.0 12486.0,7397.0 C 12494.0,7415.0 12500.0,7457.0 12500.0,7490.0 L 12500.0,7551.0 L 12475.0,7627.0 C 12461.0,7669.0 12452.0,7705.0 12455.0,7708.0 C 12458.0,7711.0 12525.0,7706.0 12603.0,7696.0 C 12681.0,7687.0 12894.0,7659.0 13075.0,7635.0 C 13257.0,7611.0 13560.0,7573.0 13750.0,7550.0 C 13940.0,7527.0 14259.0,7491.0 14460.0,7469.0 C 14661.0,7448.0 14971.0,7414.0 15150.0,7395.0 C 15329.0,7376.0 15621.0,7347.0 15800.0,7331.0 C 15979.0,7314.0 16208.0,7294.0 16310.0,7285.0 L 16820.0,7245.0 C 16999.0,7232.0 17386.0,7207.0 17680.0,7190.0 C 17974.0,7173.0 18239.0,7157.0 18268.0,7154.0 C 18296.0,7151.0 18320.0,7145.0 18320.0,7140.0 C 18320.0,7136.0 18265.0,7114.0 18198.0,7092.0 C 18130.0,7070.0 18008.0,7033.0 17925.0,7011.0 C 17843.0,6989.0 17712.0,6957.0 17635.0,6941.0 C 17558.0,6925.0 17414.0,6898.0 17315.0,6881.0 C 17216.0,6864.0 17052.0,6839.0 16950.0,6825.0 C 16848.0,6812.0 16677.0,6791.0 16570.0,6781.0 C 16463.0,6770.0 16269.0,6754.0 16140.0,6745.0 C 16011.0,6737.0 15822.0,6725.0 15720.0,6720.0 C 15618.0,6714.0 15328.0,6707.0 15075.0,6704.0 L 14270.0,6709.0 C 14080.0,6715.0 13792.0,6730.0 13630.0,6741.0 C 13468.0,6752.0 13218.0,6769.0 13075.0,6780.0 C 12932.0,6791.0 12687.0,6811.0 12530.0,6825.0 C 12373.0,6839.0 12040.0,6871.0 11790.0,6896.0 C 11540.0,6920.0 11198.0,6956.0 11030.0,6976.0 C 10862.0,6995.0 10583.0,7028.0 10410.0,7050.0 C 10237.0,7073.0 10030.0,7100.0 9950.0,7111.0 C 9870.0,7122.0 9702.0,7146.0 9575.0,7166.0 C 9449.0,7185.0 9248.0,7217.0 9130.0,7236.0 C 9012.0,7255.0 8852.0,7282.0 8775.0,7296.0 C 8698.0,7310.0 8487.0,7350.0 8305.0,7386.0 C 8124.0,7422.0 7838.0,7480.0 7670.0,7516.0 C 7502.0,7552.0 7250.0,7608.0 7110.0,7641.0 C 6970.0,7674.0 6651.0,7753.0 6402.0,7816.0 C 6154.0,7878.0 5818.0,7966.0 5657.0,8011.0 C 5497.0,8055.0 5259.0,8123.0 5130.0,8162.0 C 5001.0,8200.0 4749.0,8278.0 4570.0,8336.0 C 4391.0,8393.0 4142.0,8475.0 4015.0,8519.0 C 3889.0,8562.0 3691.0,8633.0 3575.0,8675.0 C 3460.0,8718.0 3273.0,8790.0 3160.0,8835.0 C 3047.0,8880.0 2903.0,8941.0 2840.0,8970.0 C 2777.0,8999.0 2673.0,9049.0 2609.0,9081.0 C 2545.0,9114.0 2464.0,9158.0 2429.0,9181.0 C 2394.0,9204.0 2350.0,9236.0 2331.0,9254.0 C 2313.0,9271.0 2287.0,9308.0 2274.0,9335.0 L 2250.0,9385.0 L 2250.0,9426.0 C 2250.0,9448.0 2253.0,9470.0 2256.0,9473.0 C 2260.0,9477.0 2272.0,9477.0 2284.0,9475.0 M 7638.0,9260.0 C 7648.0,9260.0 7772.0,9242.0 7915.0,9220.0 C 8058.0,9198.0 8185.0,9176.0 8197.0,9170.0 L 8219.0,9161.0 L 8225.0,9123.0 C 8229.0,9102.0 8240.0,9047.0 8251.0,9001.0 C 8262.0,8955.0 8282.0,8896.0 8296.0,8869.0 C 8311.0,8843.0 8340.0,8803.0 8362.0,8781.0 C 8383.0,8758.0 8422.0,8729.0 8448.0,8716.0 C 8474.0,8703.0 8524.0,8686.0 8558.0,8680.0 L 8620.0,8667.0 L 8947.0,8676.0 L 8995.0,8701.0 C 9022.0,8714.0 9053.0,8737.0 9064.0,8752.0 L 9084.0,8780.0 L 9092.0,8901.0 L 9070.0,8961.0 C 9058.0,8994.0 9050.0,9024.0 9053.0,9026.0 C 9055.0,9028.0 9140.0,9017.0 9241.0,9000.0 C 9342.0,8984.0 9607.0,8941.0 9830.0,8905.0 C 10053.0,8869.0 10363.0,8817.0 10520.0,8789.0 C 10677.0,8761.0 10922.0,8719.0 11064.0,8694.0 C 11207.0,8669.0 11331.0,8645.0 11340.0,8640.0 L 11357.0,8631.0 L 11365.0,8528.0 C 11369.0,8471.0 11383.0,8351.0 11396.0,8260.0 C 11409.0,8169.0 11420.0,8089.0 11420.0,8083.0 L 11420.0,8070.0 L 11397.0,8070.0 C 11384.0,8070.0 11194.0,8097.0 10974.0,8130.0 C 10755.0,8162.0 10384.0,8218.0 10150.0,8254.0 L 9275.0,8389.0 C 9028.0,8428.0 8672.0,8484.0 8485.0,8514.0 L 7805.0,8624.0 C 7618.0,8655.0 7454.0,8685.0 7441.0,8690.0 L 7417.0,8701.0 L 7428.0,8845.0 L 7459.0,8938.0 C 7476.0,8990.0 7511.0,9072.0 7536.0,9121.0 C 7561.0,9170.0 7591.0,9221.0 7602.0,9235.0 C 7613.0,9249.0 7629.0,9260.0 7638.0,9260.0 M 12167.0,8496.0 C 12183.0,8493.0 12292.0,8474.0 12410.0,8454.0 L 12625.0,8418.0 L 12638.0,8402.0 C 12644.0,8393.0 12650.0,8379.0 12650.0,8371.0 C 12650.0,8362.0 12659.0,8320.0 12670.0,8278.0 C 12681.0,8235.0 12701.0,8175.0 12716.0,8145.0 C 12730.0,8114.0 12769.0,8052.0 12802.0,8007.0 C 12835.0,7962.0 12876.0,7910.0 12893.0,7893.0 C 12910.0,7875.0 12921.0,7858.0 12918.0,7855.0 C 12915.0,7852.0 12828.0,7861.0 12724.0,7876.0 C 12620.0,7890.0 12450.0,7914.0 12345.0,7929.0 L 12155.0,7956.0 L 12125.0,8015.0 L 12125.0,8240.0 C 12125.0,8364.0 12128.0,8473.0 12132.0,8483.0 L 12140.0,8502.0 L 12167.0,8496.0 M 13630.0,8240.0 C 13635.0,8240.0 13731.0,8224.0 13842.0,8205.0 C 13954.0,8186.0 14167.0,8150.0 14315.0,8126.0 C 14464.0,8101.0 14817.0,8042.0 15100.0,7996.0 C 15383.0,7949.0 15703.0,7897.0 15810.0,7881.0 C 15917.0,7864.0 16142.0,7830.0 16310.0,7806.0 L 17360.0,7655.0 C 17539.0,7631.0 17840.0,7593.0 18030.0,7570.0 C 18220.0,7548.0 18485.0,7516.0 18620.0,7499.0 L 18865.0,7467.0 L 18888.0,7453.0 C 18900.0,7446.0 18910.0,7433.0 18910.0,7425.0 L 18910.0,7411.0 L 18721.0,7309.0 L 18688.0,7314.0 C 18670.0,7317.0 18518.0,7327.0 18350.0,7335.0 C 18182.0,7343.0 17809.0,7366.0 17520.0,7385.0 C 17231.0,7405.0 16914.0,7427.0 16815.0,7435.0 C 16716.0,7443.0 16471.0,7463.0 16270.0,7480.0 C 16069.0,7497.0 15750.0,7526.0 15560.0,7545.0 C 15370.0,7565.0 15067.0,7596.0 14885.0,7616.0 C 14704.0,7635.0 14494.0,7657.0 14420.0,7665.0 C 14346.0,7673.0 14131.0,7699.0 13943.0,7722.0 C 13754.0,7745.0 13600.0,7767.0 13600.0,7772.0 C 13600.0,7776.0 13615.0,7786.0 13633.0,7794.0 C 13650.0,7801.0 13675.0,7818.0 13687.0,7831.0 C 13699.0,7844.0 13713.0,7868.0 13719.0,7883.0 C 13725.0,7899.0 13730.0,7933.0 13730.0,7960.0 C 13730.0,7986.0 13722.0,8035.0 13711.0,8069.0 C 13701.0,8102.0 13676.0,8152.0 13656.0,8180.0 C 13636.0,8207.0 13620.0,8232.0 13620.0,8235.0 C 13620.0,8238.0 13624.0,8240.0 13630.0,8240.0 M 3866.0,8210.0 C 3868.0,8210.0 3918.0,8191.0 3977.0,8169.0 C 4037.0,8146.0 4220.0,8079.0 4385.0,8020.0 L 4685.0,7912.0 L 4691.0,7884.0 L 4603.0,7818.0 C 4555.0,7782.0 4485.0,7734.0 4447.0,7711.0 C 4410.0,7689.0 4338.0,7649.0 4287.0,7624.0 C 4237.0,7598.0 4157.0,7563.0 4110.0,7544.0 C 4063.0,7526.0 3980.0,7500.0 3924.0,7486.0 C 3869.0,7472.0 3779.0,7454.0 3724.0,7446.0 C 3670.0,7438.0 3589.0,7429.0 3545.0,7426.0 C 3501.0,7422.0 3421.0,7424.0 3367.0,7430.0 L 3269.0,7440.0 L 3213.0,7462.0 C 3182.0,7475.0 3152.0,7493.0 3146.0,7502.0 L 3136.0,7518.0 L 3158.0,7567.0 L 3272.0,7625.0 C 3334.0,7657.0 3421.0,7706.0 3465.0,7735.0 L 3546.0,7788.0 L 3626.0,7872.0 C 3670.0,7918.0 3725.0,7983.0 3747.0,8015.0 C 3769.0,8048.0 3800.0,8100.0 3815.0,8130.0 C 3830.0,8160.0 3847.0,8191.0 3852.0,8198.0 C 3858.0,8204.0 3864.0,8210.0 3866.0,8210.0" fill="none" stroke="#000000" stroke-width="17.297"/>
</svg>
